<?xml version="1.0" standalone="no"?>
<!DOCTYPE svg PUBLIC "-//W3C//DTD SVG 1.1//EN" "http://www.w3.org/Graphics/SVG/1.1/DTD/svg11.dtd" >
<svg xmlns="http://www.w3.org/2000/svg" xmlns:xlink="http://www.w3.org/1999/xlink" version="1.1">
<metadata></metadata>
<defs>
<font id="bagnard_regularregular" horiz-adv-x="1531" >
<font-face units-per-em="2048" ascent="1638" descent="-410" />
<missing-glyph horiz-adv-x="614" />
<glyph horiz-adv-x="0" />
<glyph horiz-adv-x="682" />
<glyph unicode=" "  horiz-adv-x="614" />
<glyph unicode="&#x09;" horiz-adv-x="614" />
<glyph unicode="&#xa0;" horiz-adv-x="614" />
<glyph unicode="!" horiz-adv-x="600" d="M125 127q0 18 76.5 97t97.5 79q23 0 99.5 -77.5t76.5 -98.5q0 -24 -77.5 -100t-98.5 -76q-18 0 -96 78t-78 98zM133 1348q0 69 48.5 118.5t117.5 49.5t118.5 -49.5t49.5 -118.5q0 -15 -4 -39l-133 -860h-60l-133 860q-4 24 -4 39z" />
<glyph unicode="$" horiz-adv-x="1310" d="M164 1081q0 96 32.5 171.5t90.5 125t133 79.5t166 40v107h110v-103q136 -9 271 -98l161 115l-4 -699q-37 85 -57 130.5t-49.5 109t-48.5 96t-46 75t-49.5 63.5t-51.5 43.5t-59.5 33.5t-66.5 16v-491q19 -7 56 -23.5t55 -23.5q57 -28 98 -52.5t90 -65.5t79.5 -85.5 t51.5 -109t21 -140.5q0 -170 -121 -285t-330 -122v-119h-110v125q-144 16 -256 96l-162 -113l6 695q100 -253 197.5 -392.5t214.5 -168.5v510q-54 21 -88 36q-334 160 -334 424zM401 1171q0 -83 44 -133t141 -96v444q-77 -15 -131 -76.5t-54 -138.5zM696 104 q92 11 147.5 67.5t55.5 156.5q0 144 -203 243v-467z" />
<glyph unicode="&#x26;" horiz-adv-x="1646" d="M92 352q0 145 99.5 254.5t254.5 165.5q-23 23 -28 27q-38 35 -66 65.5t-59 75t-47.5 98.5t-16.5 113q0 143 121.5 254t294.5 111q172 0 275.5 -89t103.5 -237q0 -101 -75 -194t-206 -158q87 -80 361 -328l176 307l-145 164h237l-2 -6l4 6h232l-189 -133l-248 -397 q236 -210 330 -304l180 -147h-573l111 98q-36 30 -100 85.5t-75 64.5q-41 -56 -81.5 -98t-99 -84.5t-135 -65.5t-165.5 -23q-222 0 -345.5 103t-123.5 272zM371 393q0 -122 77.5 -205.5t210.5 -83.5q165 0 314 203q-139 120 -467 412q-73 -67 -104 -145.5t-31 -180.5z M467 1229q0 -137 115 -244q82 -75 96 -88q69 66 108 141t39 138q0 115 -50 180t-128 65t-129 -54.5t-51 -137.5z" />
<glyph unicode="(" horiz-adv-x="792" d="M164 653q0 280 145 566t357 464l65 -73q-162 -181 -240.5 -439t-78.5 -518t78.5 -517.5t240.5 -438.5l-65 -74q-224 196 -363 473.5t-139 556.5z" />
<glyph unicode=")" horiz-adv-x="792" d="M61 -303q110 123 184.5 292t105 333.5t30.5 330.5t-30.5 330.5t-105 334t-184.5 292.5l66 73q212 -178 357 -464t145 -566q0 -279 -139 -556.5t-363 -473.5z" />
<glyph unicode="," horiz-adv-x="616" d="M143 168q0 68 49 116t125 48q72 0 127.5 -62.5t55.5 -163.5q0 -68 -22.5 -134.5t-53.5 -112.5t-71 -88t-65.5 -62.5t-47.5 -34.5q-21 -9 -35.5 -8.5t-18.5 6.5q-9 18 7 37q2 3 14.5 19t17.5 23t16.5 24.5t17.5 29t15 30t13.5 34t8 34.5t3.5 38q0 34 -19 52.5t-36 20.5 q-1 1 -11.5 6.5t-17.5 10t-19 14t-20 20.5t-16.5 26t-12.5 34.5t-4 42.5z" />
<glyph unicode="-" horiz-adv-x="788" d="M123 451v139h543v-139h-543z" />
<glyph unicode="." horiz-adv-x="616" d="M133 154q0 18 76.5 97t97.5 79q23 0 99.5 -77.5t76.5 -98.5q0 -24 -77.5 -100.5t-98.5 -76.5q-18 0 -96 78.5t-78 98.5z" />
<glyph unicode="/" horiz-adv-x="745" d="M-27 25l650 1515l139 -49l-649 -1516z" />
<glyph unicode="0" horiz-adv-x="1320" d="M72 737q0 99 14.5 190.5t43.5 177t77.5 155.5t111.5 122.5t150 81.5t190 29q123 0 223.5 -41.5t167.5 -112.5t113 -168.5t66 -206t20 -227.5t-20 -227t-66 -205.5t-113 -168.5t-167.5 -112.5t-223.5 -41.5t-222.5 41.5t-166.5 112.5t-112.5 168.5t-65.5 205.5t-20 227z M358 737q0 -89 4.5 -162t16.5 -148t34 -131t54 -100.5t81 -68t111 -23.5q76 0 131.5 35t88 91.5t52 142t26 170.5t6.5 194q0 89 -5 162t-16.5 148t-34 131t-55 100.5t-81.5 68t-112 23.5q-62 0 -111 -23.5t-81 -68t-54 -100.5t-34 -131t-16.5 -148t-4.5 -162z" />
<glyph unicode="1" horiz-adv-x="823" d="M41 1151l504 330l73 55l-2 -1536h-243v1178z" />
<glyph unicode="2" horiz-adv-x="1067" d="M-45 0l188 205q215 230 272 298q154 182 202 328q26 78 30 162q0 77 -23.5 138t-62.5 96.5t-84 54t-92 18.5q-124 0 -216 -77t-116 -213q-21 229 99.5 360t334.5 131q186 0 310.5 -120.5t124.5 -297.5q0 -80 -27 -159t-66 -141.5t-109.5 -141.5t-129 -135t-154 -147 t-157.5 -154h659l-55 -205h-928z" />
<glyph unicode="3" horiz-adv-x="1155" d="M57 305l90 -61q8 -22 12.5 -32.5t16 -29.5t23 -28t33 -22t47.5 -19t64.5 -10.5t86.5 -4.5q93 0 172.5 36t131.5 111.5t52 176.5q0 62 -9 114t-34.5 102.5t-67 85t-110 56t-159.5 21.5h-64v90h109h77q80 38 133.5 103t53.5 149q0 108 -68 168.5t-162 60.5q-115 0 -205 -67 t-149 -179q-10 173 109 279t323 106q177 0 293.5 -86.5t116.5 -234.5q0 -107 -72 -184.5t-180 -118.5q158 -30 255 -149.5t97 -262.5q0 -146 -76 -259.5t-207.5 -174.5t-295.5 -61q-145 0 -232.5 29.5t-138.5 101.5q-74 106 -66 194z" />
<glyph unicode="4" horiz-adv-x="1208" d="M35 387v68l31 39l690 874l186 244l-2 -1077h205v-148h-205v-387h-244v387h-661zM227 535h469v583z" />
<glyph unicode="5" horiz-adv-x="1097" d="M66 270l135 -75q36 -47 100 -72t127 -25q163 0 260.5 99.5t91.5 257.5q-2 67 -26 122t-62 92t-88 62t-103.5 36.5t-109.5 12.5q-60 0 -138 -13.5t-116 -41.5l33 254l61 491h21v3h737l-35 -226h-649l-31 -241q98 13 170 10q93 -3 175 -22t153.5 -57.5t123 -93.5 t82.5 -133.5t34 -174.5q7 -251 -147 -403t-394 -152q-87 0 -160.5 27t-122 71.5t-79 93t-43.5 98.5z" />
<glyph unicode="6" horiz-adv-x="1148" d="M72 573q0 90 29.5 189.5t76.5 184t93 149.5t91 114q114 122 281.5 215.5t296.5 77.5q-110 -52 -240.5 -177t-199.5 -236q-79 -125 -115 -265q53 42 120.5 66t131.5 24q212 0 331 -111t119 -306q0 -154 -70 -273t-185 -181t-254 -62q-116 0 -205.5 33t-145.5 87.5 t-91.5 132.5t-49.5 160t-14 178zM352 541q0 -46 1 -79t4 -78.5t10.5 -78t19 -69.5t30 -62t43.5 -47t60 -32.5t78 -10.5q101 0 155 88t54 252q0 168 -62.5 270.5t-177.5 102.5q-75 0 -131.5 -40t-81.5 -126q-2 -29 -2 -90z" />
<glyph unicode="7" horiz-adv-x="933" d="M18 1501h979l-131 -225h-4l2 -4l-475 -1272h-315l669 1276h-723z" />
<glyph unicode="8" horiz-adv-x="1140" d="M86 352q0 129 73 230.5t195 162.5q-110 69 -171.5 158.5t-61.5 226.5q0 69 34.5 138.5t92 124.5t140.5 89t173 34q196 0 316 -98.5t120 -248.5q0 -97 -68.5 -180t-191.5 -145q57 -34 99.5 -63.5t88 -72t74 -86.5t47.5 -103.5t19 -125.5q0 -121 -70.5 -217.5t-182 -147.5 t-237.5 -51q-224 0 -356.5 104t-132.5 271zM303 373q0 -125 68.5 -207t199.5 -82q97 0 164.5 70t67.5 186q0 31 -6 59t-20 52.5t-28 44t-39.5 40.5t-44 35t-53 33.5t-54.5 30t-59.5 31t-58.5 30.5q-137 -129 -137 -323zM358 1229q0 -46 17 -87.5t40.5 -72.5t67 -65t78 -56 t90.5 -55q70 63 109 131.5t39 130.5q0 47 -14.5 92.5t-42 85t-74 64t-105.5 24.5q-88 0 -146.5 -54.5t-58.5 -137.5z" />
<glyph unicode="9" horiz-adv-x="1148" d="M61 977q0 154 70 273t185.5 181t254.5 62q116 0 205.5 -33t145.5 -88t91.5 -133t49.5 -160t14 -178q0 -90 -29.5 -189.5t-77 -184t-93.5 -149.5t-91 -114q-81 -88 -213.5 -172t-246.5 -112q-24 -5 -43.5 -4.5t-29 7.5t-11 17t12.5 24.5t40 28.5q65 35 112.5 65t110 83 t106.5 112t84.5 148t61.5 194q-53 -45 -122.5 -70.5t-135.5 -25.5q-212 0 -331.5 111.5t-119.5 306.5zM342 1051q0 -168 62.5 -270.5t177.5 -102.5q75 0 131.5 40.5t81.5 127.5q2 29 2 88q0 46 -1 79t-4 78.5t-10.5 78t-19 69.5t-30 62t-43.5 47t-60 32.5t-78 10.5 q-101 0 -155 -88t-54 -252z" />
<glyph unicode=":" horiz-adv-x="636" d="M143 156q0 18 76.5 97t97.5 79q23 0 100 -77.5t77 -98.5q0 -24 -78 -100t-99 -76q-18 0 -96 78t-78 98zM143 823q0 18 76.5 97t97.5 79q23 0 100 -77.5t77 -98.5q0 -24 -78 -100t-99 -76q-18 0 -96 78t-78 98z" />
<glyph unicode=";" horiz-adv-x="636" d="M143 168q0 68 49 116t125 48q72 0 127.5 -62.5t55.5 -163.5q0 -68 -22.5 -134.5t-53.5 -112.5t-71 -88t-65.5 -62.5t-47.5 -34.5q-21 -9 -35.5 -8.5t-18.5 6.5q-9 18 7 37q2 3 14.5 19t17.5 23t16.5 24.5t17.5 29t15 30t13.5 34t8 34.5t3.5 38q0 34 -19 52.5t-36 20.5 q-1 1 -11.5 6.5t-17.5 10t-19 14t-20 20.5t-16.5 26t-12.5 34.5t-4 42.5zM143 825q0 18 76.5 97t97.5 79q23 0 100 -77.5t77 -98.5q0 -24 -78 -100t-99 -76q-18 0 -96 78t-78 98z" />
<glyph unicode="?" horiz-adv-x="1044" d="M84 1229q0 45 33 96t86.5 94t129.5 71t154 28h35q58 0 116.5 -12.5t116.5 -41.5t102.5 -71.5t72.5 -107.5t28 -144q0 -69 -27.5 -135.5t-80 -123.5t-138.5 -96.5t-194 -50.5l-65 -286h-50l-47 438q76 1 136.5 18.5t98 45t62 65t34 75t9.5 78.5q-1 122 -81 190t-199 68 q-114 0 -156 -55q53 0 97 -44.5t44 -108.5q0 -66 -46.5 -112t-112.5 -46q-69 0 -113.5 44.5t-44.5 123.5zM254 168q0 18 76.5 97t97.5 79q23 0 99.5 -77.5t76.5 -98.5q0 -24 -77.5 -100t-98.5 -76q-18 0 -96 78t-78 98z" />
<glyph unicode="@" horiz-adv-x="1677" d="M72 555q0 162 53 304.5t143 246t207.5 178.5t249 112.5t264.5 37.5q87 0 170.5 -19t165.5 -63.5t143.5 -110t99.5 -166.5t38 -225q0 -136 -36.5 -242t-90.5 -166.5t-124 -100t-128.5 -52.5t-112.5 -13q-63 0 -108 31t-60 84q-36 -55 -93.5 -82.5t-117.5 -27.5 q-59 0 -110.5 23.5t-91 74t-51.5 129.5t7 190q33 180 168 307.5t310 127.5q96 0 147 -72l139 43l-112 -533h2q-4 -8 -4 -14l-9 -37q-1 -4 -2 -12t-2 -12q-20 -127 60 -127q29 0 58.5 14t60 48.5t54.5 85t39 131t15 179.5q0 117 -36.5 217t-97.5 166t-140 103.5t-164 38.5 q-52 0 -109.5 -9t-125.5 -33t-131 -60.5t-123 -97.5t-104 -137.5t-70.5 -186t-26.5 -238.5q0 -76 21.5 -151.5t66 -146t107 -124.5t151.5 -86.5t192 -32.5q87 0 210.5 29.5t189.5 64.5l24 -57q-220 -121 -545 -121q-149 0 -271.5 50.5t-199 134.5t-118 188.5t-41.5 216.5z M698 709q-22 -156 27 -229.5t123 -73.5q57 0 92 26v4q0 25 7 82t14 86l73 324q-10 55 -33.5 84.5t-50.5 29.5q-90 0 -158 -100t-94 -233z" />
<glyph unicode="A" d="M66 0l628 1489h109l581 -1489h-323l-158 428h-508l-176 -428h-153zM442 545h418l-198 534z" />
<glyph unicode="B" horiz-adv-x="1538" d="M315 0v1470h160l455 3q195 0 309.5 -98t114.5 -247q0 -61 -15.5 -111t-52 -98t-103.5 -87t-163 -68q121 -10 212 -52.5t147.5 -127t56.5 -203.5q0 -76 -30.5 -143t-88.5 -121t-153.5 -85.5t-215.5 -31.5h-633zM602 104h193q67 2 126 19.5t106.5 51t75 89.5t27.5 127 q0 149 -109.5 229t-311.5 80h-107v-596zM602 805q57 0 95.5 1.5t90 7t85 16.5t70 31t57.5 48.5t35 71t14 96.5q0 87 -32 154t-91 96q-36 19 -89 28t-87.5 10t-122.5 1h-25v-561z" />
<glyph unicode="C" horiz-adv-x="1497" d="M102 690q0 382 203.5 597.5t544.5 215.5q132 0 269.5 -88.5t199.5 -245.5v-176q-102 172 -146 227q-78 95 -179 124q-64 18 -154 18q-121 0 -216 -78.5t-147.5 -217t-52.5 -312.5q0 -135 25 -251.5t74.5 -208t132 -144t188.5 -52.5q360 0 477 258v-161q-53 -81 -141 -135 t-182.5 -75.5t-198.5 -21.5q-208 0 -367.5 95.5t-244.5 260t-85 371.5z" />
<glyph unicode="D" horiz-adv-x="1650" d="M264 0v1470h486q125 0 239.5 -26t217.5 -84t178 -142.5t119 -209.5t44 -277q0 -124 -31.5 -233.5t-97.5 -201.5t-161.5 -158.5t-229.5 -104t-295 -37.5zM551 113h180q245 0 367.5 158.5t122.5 439.5q0 140 -32 255.5t-95.5 203.5t-166.5 137t-237 49h-139v-1243z" />
<glyph unicode="E" horiz-adv-x="1454" d="M264 0v1470h1039v-116h-752v-541h457v-125h-457v-561h780v-127h-1067z" />
<glyph unicode="F" horiz-adv-x="1302" d="M264 0v1470h1002v-116h-715v-561h457v-125h-457v-668h-287z" />
<glyph unicode="G" horiz-adv-x="1613" d="M102 690q0 191 57 344.5t160 256t249 157.5t323 55q133 0 252.5 -52.5t199.5 -172.5v-281q-50 124 -189 225q-139 99 -263 99h-2q-230 -3 -347.5 -151t-117.5 -416q0 -110 13 -199t44 -166t78.5 -128.5t120.5 -78.5q63 -23 139 -23q14 0 29 1q66 3 115.5 18t78 38.5 t43.5 48t21 52.5l4 279l233 184l-4 -506q-25 -87 -112 -160t-197.5 -112t-216.5 -39q-219 0 -382 96t-246 259.5t-83 371.5z" />
<glyph unicode="H" horiz-adv-x="1734" d="M264 0v1473h287v-670h623v665h286v-1468h-286v686h-623v-686h-287z" />
<glyph unicode="I" horiz-adv-x="825" d="M264 0v1470h287v-1470h-287z" />
<glyph unicode="J" horiz-adv-x="774" d="M59 -459q11 13 34.5 40.5t34.5 41t30 41.5t28.5 51t22.5 61t19.5 79t11.5 97.5t6 123.5v1394h286v-1361q0 -131 -31 -233.5t-79 -164t-113 -101t-125.5 -54.5t-124.5 -15z" />
<glyph unicode="K" horiz-adv-x="1521" d="M264 0v1470h287v-741l717 741h164l-551 -559l698 -1005q-84 0 -185 46.5t-196.5 122.5t-179 160t-154.5 173q-206 255 -215 266l-98 -99v-575h-287z" />
<glyph unicode="L" horiz-adv-x="1478" d="M264 0v1466h287v-1339h784v-127h-1071z" />
<glyph unicode="M" horiz-adv-x="2099" d="M240 0v1470h284l504 -1044l510 1044h287v-1470h-287v1206l-463 -966l-53 -115l-74 -150l-581 1199v-1174h-127z" />
<glyph unicode="N" horiz-adv-x="1669" d="M242 0v1473h137v-3h16l897 -913v913h138v-1501l-1051 1075v-1044h-137z" />
<glyph unicode="O" horiz-adv-x="1660" d="M92 731q0 348 203.5 565t533.5 217q171 0 311.5 -60t232.5 -165q93 -104 143 -246q52 -144 51 -311q-1 -353 -199 -562q-200 -210 -539 -216q-338 5 -537.5 213.5t-199.5 564.5zM414 733q0 -104 13.5 -197t45 -179t78.5 -147.5t118 -98.5t160 -37q88 0 159.5 37t118.5 99 t78.5 147.5t45.5 179t14 196.5q0 129 -23 243t-70.5 209t-130.5 151t-192 57h-5q-85 0 -154 -36q-71 -37 -118 -99.5t-78.5 -148.5t-45.5 -179.5t-14 -196.5z" />
<glyph unicode="P" horiz-adv-x="1337" d="M264 0v1470h160l414 3q110 0 203 -33.5t154 -89.5t94.5 -129.5t33.5 -153.5q0 -93 -36 -177t-101.5 -148.5t-167 -103t-223.5 -38.5q-174 0 -244 8v-608h-287zM551 702h77t74 4t72.5 10t65 18t60 28.5t48 42t38.5 58t23 76.5t9 97q0 101 -32 178.5t-91 112.5 q-36 19 -89 28t-87.5 10t-122.5 1h-45v-664z" />
<glyph unicode="Q" horiz-adv-x="1701" d="M102 731q0 229 93.5 407t264 276.5t390.5 98.5q173 0 314.5 -60t235.5 -165t145 -246.5t52 -306.5v-5q0 -225 -85 -394q-85 -172 -244 -270l237 -533q-58 14 -110.5 38t-92 50t-87 69t-79.5 77t-88 93t-96 99q-50 -6 -102 -6q-342 5 -545 213.5t-203 564.5zM424 733 q0 -103 14.5 -197t47 -179t81 -147.5t121 -99t162.5 -36.5q89 0 161.5 37t121 99.5t81.5 147.5t47.5 178.5t14.5 196.5q0 129 -24 243t-73 209t-133.5 151t-195.5 57h-5q-86 0 -157 -36q-73 -37 -121 -99.5t-81 -148.5t-47.5 -179.5t-14.5 -196.5z" />
<glyph unicode="R" horiz-adv-x="1513" d="M264 0v1470h160q270 3 487 3q192 0 308 -107t116 -258q0 -51 -10.5 -96t-36.5 -90.5t-68 -83t-108.5 -71t-153.5 -56.5l586 -805q-84 0 -178.5 44.5t-175.5 110.5t-172 157.5t-159 172t-145.5 170t-123.5 135.5l-39 -2v-694h-287zM551 784q67 0 101.5 1t94 6t92 16t75 32 t64 51.5t37 78t15.5 108.5q0 87 -32 154t-91 96q-36 19 -89 28t-87.5 10t-122.5 1h-57v-582z" />
<glyph unicode="S" horiz-adv-x="1310" d="M88 307l295 82q30 -103 128.5 -178.5t199.5 -75.5q68 0 131.5 21t108 66t44.5 104q0 79 -47.5 147.5t-132.5 87.5l-227 60q-219 46 -343 160t-124 276q0 109 41 198.5t111.5 146.5t160.5 87.5t191 30.5q123 0 213.5 -15t167 -52t127.5 -103t79 -164l-303 -45 q-25 122 -98.5 180.5t-165.5 58.5q-116 0 -190 -52.5t-74 -156.5q0 -98 86 -188.5t221 -124.5l195 -45q153 -39 261 -141q109 -103 109 -231q0 -86 -36 -166q-37 -82 -104.5 -146.5t-173 -102.5t-232.5 -38q-123 0 -221 16.5t-179 53t-136.5 99t-82.5 150.5z" />
<glyph unicode="T" horiz-adv-x="1400" d="M23 1358v117h1357v-117h-538v-1358h-287v1358h-532z" />
<glyph unicode="U" horiz-adv-x="1648" d="M233 586v884h308v-927q0 -77 9 -138.5t34 -119t65 -95.5t105.5 -61t152.5 -23q90 0 158 30t118.5 94t76.5 170.5t26 254.5l-2 815h152v-835q0 -109 -15.5 -202.5t-56 -185.5t-105 -156.5t-170 -104t-243.5 -39.5q-140 0 -246.5 31.5t-175.5 86t-112.5 136.5t-61 175.5 t-17.5 209.5z" />
<glyph unicode="V" horiz-adv-x="1693" d="M139 1470h344l457 -1083l449 1083h143l-592 -1382l-18 -45l-64 -149z" />
<glyph unicode="W" horiz-adv-x="2260" d="M109 1477h315l381 -1026l268 825l-74 199h314l352 -1039l369 1041h139l-528 -1434l-56 -149l-444 1189l-273 -811l2 -6l-77 -223l-58 -149z" />
<glyph unicode="X" horiz-adv-x="1558" d="M98 0l545 705l-512 768h324l374 -562l398 559h143l-477 -657l543 -813h-324l-403 606l-449 -606h-162z" />
<glyph unicode="Y" horiz-adv-x="1503" d="M133 1470h324l413 -755l433 753h143l-526 -882v-586h-287v555z" />
<glyph unicode="Z" horiz-adv-x="1466" d="M27 0l856 1333h-709v137h1139l-869 -1320l863 2v-152h-1280z" />
<glyph unicode="`" horiz-adv-x="1705" d="M430 1427l29 62h219l6 -8q32 -43 126 -192.5t103 -162.5l-34 -36z" />
<glyph unicode="a" horiz-adv-x="1048" d="M113 205q0 115 75.5 198t180.5 115q47 14 97 23t80.5 11.5t82 5.5t71.5 5l2 121q-1 110 -49 169.5t-129 59.5q-64 0 -104 -41t-53 -108l-213 -49q18 123 133.5 210t271.5 87h33q71 0 129.5 -18t108.5 -57t78 -111t28 -171v-632l-182 -56l-52 189q-50 -82 -144.5 -133.5 t-195.5 -51.5q-67 0 -118 23t-78 60t-40 75t-13 76zM356 223q0 -44 31.5 -71t73.5 -27q64 0 134 40.5t101 113.5l2 215q-55 -12 -202 -68q-140 -62 -140 -203z" />
<glyph unicode="b" horiz-adv-x="1243" d="M164 -25v1502l246 163l-2 -757q62 53 147 83.5t158 30.5q85 0 162.5 -30.5t142 -89t103 -155.5t38.5 -220q0 -68 -19 -139t-54.5 -135t-86 -118.5t-113.5 -90.5q-64 -35 -138 -49q-33 -6 -67 -6q-43 0 -89 9q-115 22 -182 109v-107h-246zM408 199q89 -95 225 -95 q125 0 198.5 82.5t73.5 221.5q0 198 -93 302.5t-237 104.5q-103 0 -167 -49v-412v-155z" />
<glyph unicode="c" horiz-adv-x="1054" d="M82 459q0 244 149.5 393t384.5 149q138 0 237 -74t108 -188l-181 -34q0 34 -1.5 53.5t-11 51.5t-27.5 49.5t-55.5 31.5t-90.5 14q-118 0 -199.5 -93.5t-81.5 -238.5q0 -185 94.5 -296t245.5 -111q145 0 275 90l14 -109q-41 -69 -138.5 -118t-232.5 -49q-218 0 -353.5 136 t-135.5 343z" />
<glyph unicode="d" horiz-adv-x="1255" d="M84 469q0 102 42 198t115 169t180 117t230 44q105 0 183 -32v553l245 122v-1673l-241 -4l-2 137q-96 -127 -297 -127h-9q-85 2 -162.5 32.5t-142 88.5t-103 155t-38.5 220zM338 563q0 -79 23 -148.5t59 -116.5t80 -81q45 -35 88 -49q38 -13 71 -12h9q108 5 166 49v448 q-11 117 -76 179.5t-150 62.5q-39 0 -85.5 -26.5t-87.5 -69.5t-69 -106.5t-28 -129.5z" />
<glyph unicode="e" horiz-adv-x="1064" d="M82 471q0 144 60 264t174 193t259 73q54 0 108.5 -11t111.5 -38t101 -67.5t74 -105.5t34 -146v-15v-26v-62h-691q8 -156 99 -250t241 -94h2q130 0 291 111l15 -109q-45 -75 -152 -141.5t-238 -66.5h-8q-92 0 -171 27t-135.5 73.5t-96 109t-59 134t-19.5 147.5zM313 633 h428q0 125 -50.5 198.5t-145.5 73.5q-90 0 -161 -74.5t-71 -197.5z" />
<glyph unicode="f" horiz-adv-x="710" d="M49 850v131h154q-3 29 -3 56q0 59 12 111q18 77 54.5 126.5t84 84t99.5 46.5q46 10 89 10h14q50 -2 92 -23t66 -55l-72 -80q-19 32 -62 42q-13 3 -25 3q-49 0 -79 -53q-31 -55 -31 -158q0 -49 7 -110h247v-131h-243v-850h-246v850h-158z" />
<glyph unicode="g" horiz-adv-x="1083" d="M41 -227q0 58 38 105.5t99 77.5t124.5 48.5t127.5 26.5q-50 22 -182 80v65l98 55l129 86q-166 17 -266 108t-100 232q0 154 130 249t330 95q194 0 308 -93.5t114 -250.5q0 -147 -107.5 -239t-285.5 -103l-113 -75q280 -105 398 -164q83 -42 116 -94.5t33 -122.5 q0 -134 -151.5 -236t-374.5 -102q-127 0 -230.5 27.5t-169 86t-65.5 138.5zM266 -195v-6q0 -78 80 -134q83 -58 195 -58q118 0 195 45.5t77 114.5q0 31 -14.5 57.5t-43 47.5t-52 34.5t-58.5 30.5q-15 6 -33.5 14.5t-44 20t-41.5 18.5q-99 -10 -178.5 -70.5t-81.5 -114.5z M377 657q0 -256 174 -256t174 256q0 258 -174 258t-174 -258z" />
<glyph unicode="h" horiz-adv-x="1239" d="M180 0v1372l246 164v-684q100 149 305 149q150 0 241 -92.5t91 -263.5l-2 -645h-246l2 584q0 85 -7 126.5t-30 75.5q-44 68 -153 68q-51 0 -90 -17.5t-61.5 -46t-33.5 -53t-18 -51.5v-686h-244z" />
<glyph unicode="i" horiz-adv-x="624" d="M147 1303q0 18 77 97t98 79q23 0 99.5 -77.5t76.5 -98.5q0 -24 -77.5 -100.5t-98.5 -76.5q-18 0 -96.5 78.5t-78.5 98.5zM197 0v893l245 149v-1042h-245z" />
<glyph unicode="j" horiz-adv-x="612" d="M51 -479q9 11 33 38.5t33.5 40.5t28 41.5t26.5 55t18 67t14.5 92t4.5 115.5v922l246 149v-1042q0 -110 -26.5 -196.5t-68 -138t-97 -85.5t-107.5 -46.5t-105 -12.5zM160 1303q0 18 76.5 97t97.5 79q23 0 99.5 -77.5t76.5 -98.5q0 -24 -77.5 -100.5t-98.5 -76.5 q-18 0 -96 78.5t-78 98.5z" />
<glyph unicode="k" horiz-adv-x="1157" d="M180 0v1372l246 164l-2 -948h57l428 397h152l-399 -358l509 -625q-106 -2 -185 -2t-132 2l-385 473h-45v-475h-244z" />
<glyph unicode="l" horiz-adv-x="630" d="M190 0v1415l246 164l-2 -1579h-244z" />
<glyph unicode="m" horiz-adv-x="1818" d="M197 0v903l184 123l47 -197q96 172 301 172q103 0 178.5 -50.5t108.5 -145.5q48 97 123 146.5t192 49.5q141 0 226 -93t85 -263l-2 -645h-245l2 571q-2 139 -40 209t-134 70q-49 0 -86 -20.5t-54.5 -49t-28 -57.5t-12.5 -49l-2 -21v-8l-2 -645h-245l2 571q-2 139 -40 209 t-134 70q-46 0 -81 -17t-54.5 -45t-29 -52.5t-14.5 -49.5v-686h-245z" />
<glyph unicode="n" horiz-adv-x="1171" d="M143 0v903l185 123l47 -199q52 86 129 130t192 44q150 0 241 -92.5t91 -263.5l-2 -645h-246l2 584q0 85 -7 126.5t-30 75.5q-44 68 -153 68q-53 0 -92.5 -18t-61.5 -48t-32.5 -54.5t-16.5 -51.5v-682h-246z" />
<glyph unicode="o" horiz-adv-x="1196" d="M82 487q0 230 143.5 372t372.5 142q236 0 375 -143.5t141 -365.5q0 -235 -140.5 -371t-375.5 -141q-235 3 -375.5 138t-140.5 369zM367 489q0 -411 231 -411t231 411q0 413 -231 416h-4q-64 -1 -108 -33q-46 -34 -71.5 -94t-36.5 -130.5t-11 -158.5z" />
<glyph unicode="p" horiz-adv-x="1271" d="M193 -461v1364l239 178l4 -225q68 65 152 103t153 38q85 0 163 -30.5t142.5 -89t103 -155.5t38.5 -220q0 -102 -42 -198t-115 -169.5t-180.5 -117.5t-229.5 -44q-102 0 -183 33v-467h-245zM438 309q20 -233 226 -233q122 0 196 94.5t74 237.5q0 198 -93 302.5t-237 104.5 q-25 0 -71 -19t-95 -51v-436z" />
<glyph unicode="q" horiz-adv-x="1271" d="M70 473q0 102 42 198t115 169t180 117t230 44q109 0 201 -57l221 133v-1538h-246v574q-67 -62 -148.5 -99t-148.5 -37q-85 0 -162.5 30.5t-142 89t-103 156t-38.5 220.5zM324 567q0 -198 92.5 -302.5t236.5 -104.5q25 0 70 18t90 47v486q-36 188 -219 188 q-122 0 -196 -94.5t-74 -237.5z" />
<glyph unicode="r" horiz-adv-x="831" d="M197 0v903l184 123l55 -260q37 105 106 170t156 65q59 0 106.5 -41.5t47.5 -117.5v-17l-219 -131q-5 35 -12 60t-24 47t-42 20q-55 -57 -81 -126.5t-32 -166.5v-528h-245z" />
<glyph unicode="s" horiz-adv-x="946" d="M88 201l221 55q18 -61 78 -104t117 -43q76 0 129 26t53 84q0 41 -28 74.5t-85 46.5l-151 39q-145 31 -228 117t-83 206q0 97 47 169t122 106.5t166 34.5q168 0 263 -48.5t131 -175.5l-217 -30q-12 69 -61.5 106t-100.5 37q-76 0 -123 -32.5t-47 -90.5q0 -61 54 -105.5 t149 -68.5l129 -31q105 -26 174 -100t69 -178q0 -126 -98.5 -216.5t-265.5 -90.5q-347 0 -414 213z" />
<glyph unicode="t" horiz-adv-x="798" d="M18 850v131h144l162 309h79v-309h345v-131h-340l-2 -459q0 -101 51 -162t135 -61q48 0 89.5 17t94.5 59q3 -12 4.5 -20t3 -14.5t5.5 -25t10 -45.5q-36 -61 -114 -110t-185 -49q-168 0 -254 98.5t-86 277.5l2 494h-144z" />
<glyph unicode="u" horiz-adv-x="1222" d="M164 334l2 557l246 151l-2 -634q2 -141 42.5 -210t147.5 -69q49 0 86 15.5t57 41.5t30.5 49.5t14.5 49.5v606l246 151v-997l-184 -92l-47 199q-50 -88 -123 -131.5t-188 -43.5q-150 0 -239 93t-89 264z" />
<glyph unicode="v" horiz-adv-x="1071" d="M37 981h287l282 -668l293 668h123l-451 -979v2l-43 -92z" />
<glyph unicode="w" horiz-adv-x="1634" d="M45 981h266l242 -649l199 514l-56 135h267l239 -651l252 651h123l-324 -788l-116 -283l-326 790l-207 -503l-119 -287z" />
<glyph unicode="x" horiz-adv-x="1116" d="M63 981h287l252 -346l283 346h147l-366 -434l397 -547h-301l-264 371l-258 -371h-172l366 459z" />
<glyph unicode="y" horiz-adv-x="1077" d="M37 981h266l299 -664l297 664h123l-502 -1126q-64 -127 -125.5 -194t-128.5 -91.5t-168 -24.5l2 62q152 0 320 304q3 5 4 7l49 113z" />
<glyph unicode="z" horiz-adv-x="1069" d="M57 0l590 879h-504v102h865l-607 -879h545v-102h-889z" />
<glyph unicode="&#xa8;" horiz-adv-x="1705" d="M285 1319q0 53 36.5 90t88.5 37t89.5 -37t37.5 -90q0 -52 -37 -88.5t-90 -36.5q-52 0 -88.5 36t-36.5 89zM655 1319q0 53 36.5 90t88.5 37t89.5 -37t37.5 -90q0 -52 -37 -88.5t-90 -36.5q-52 0 -88.5 36t-36.5 89z" />
<glyph unicode="&#xab;" horiz-adv-x="980" d="M53 483l363 375h84l-201 -375l201 -377h-80zM453 483l364 375h82l-201 -375l201 -377h-80z" />
<glyph unicode="&#xad;" horiz-adv-x="788" d="M123 451v139h543v-139h-543z" />
<glyph unicode="&#xb4;" horiz-adv-x="1705" d="M469 1126q9 13 103 162.5t126 192.5l7 8h219l28 -62l-448 -337z" />
<glyph unicode="&#xb8;" horiz-adv-x="1705" d="M31 -494q8 1 37.5 5t44 6.5t42 8.5t43 12.5t36.5 18t32 25.5t19 34t8 44q0 46 -39.5 83t-106.5 50l154 207h102l-90 -115q75 -20 130 -75t55 -125q0 -61 -32.5 -108t-83.5 -72t-104 -37.5t-104 -12.5q-92 0 -143 51z" />
<glyph unicode="&#xbb;" horiz-adv-x="980" d="M82 106l201 377l-201 375h82l364 -375l-366 -377h-80zM481 106l201 377l-201 375h84l363 -375l-367 -377h-80z" />
<glyph unicode="&#xc0;" d="M66 0l628 1489h109l581 -1489h-323l-158 428h-508l-176 -428h-153zM295 1855l29 64h260l317 -303l-35 -37zM442 545h418l-198 534z" />
<glyph unicode="&#xc1;" d="M66 0l628 1489h109l581 -1489h-323l-158 428h-508l-176 -428h-153zM442 545h418l-198 534zM616 1616l318 303h260l29 -64l-572 -276z" />
<glyph unicode="&#xc2;" d="M66 0l628 1489h109l581 -1489h-323l-158 428h-508l-176 -428h-153zM418 1618l377 346l374 -344l-36 -45l-338 164l-346 -164zM442 545h418l-198 534z" />
<glyph unicode="&#xc3;" d="M66 0l628 1489h109l581 -1489h-323l-158 428h-508l-176 -428h-153zM442 545h418l-198 534zM444 1655q5 104 59.5 184t143.5 80q62 0 167 -48t147 -48q80 0 115.5 29.5t37.5 62.5l27 -4q-3 -69 -23 -127.5t-66 -101.5t-112 -44q-43 -1 -97.5 25t-111.5 52t-106 26 q-75 0 -113.5 -24.5t-40.5 -65.5z" />
<glyph unicode="&#xc4;" d="M66 0l628 1489h109l581 -1489h-323l-158 428h-508l-176 -428h-153zM418 1808q0 55 38.5 94.5t92.5 39.5q55 0 94 -39t39 -95q0 -55 -38.5 -93t-94.5 -38q-54 0 -92.5 38t-38.5 93zM442 545h418l-198 534zM850 1808q0 56 38 95t93 39q54 0 93.5 -39.5t39.5 -94.5t-39 -93 t-94 -38t-93 37.5t-38 93.5z" />
<glyph unicode="&#xc5;" d="M66 0l628 1489h109l581 -1489h-323l-158 428h-508l-176 -428h-153zM442 545h418l-198 534zM539 1806q0 86 65 132.5t166 46.5q103 0 169.5 -46.5t66.5 -132.5q0 -87 -66 -132.5t-170 -45.5q-102 0 -166.5 45.5t-64.5 132.5zM680 1806q0 -104 92 -104q94 0 94 104 q0 109 -94 109q-92 0 -92 -109z" />
<glyph unicode="&#xc6;" horiz-adv-x="2107" d="M-49 0l201 195l634 1157l-147 118h1325l21 -530l-279 414h-502v-572h264l193 287v-698l-193 286h-264v-530h535l327 465l-81 -592h-1280l213 166v498h-351l-284 -541l151 -123h-483zM629 780h289v545z" />
<glyph unicode="&#xc7;" horiz-adv-x="1533" d="M102 690q0 382 203.5 597.5t544.5 215.5q132 0 269.5 -88.5t199.5 -245.5v-176q-102 172 -146 227q-78 95 -179 124q-64 18 -154 18q-121 0 -216 -78.5t-147.5 -217t-52.5 -312.5q0 -135 25 -251.5t74.5 -208t132 -144t188.5 -52.5q360 0 477 258v-161 q-77 -117 -212 -173t-294 -59l-61 -78q77 -20 134.5 -75.5t57.5 -124.5q0 -54 -23 -97.5t-58 -69.5t-80.5 -43t-87.5 -23.5t-83 -6.5q-92 0 -143 51q254 16 254 164q0 47 -35.5 83.5t-101.5 49.5l129 174q-185 18 -325.5 117t-215 256t-74.5 350zM717 -33q54 -4 82 -4h16 l29 37h-103z" />
<glyph unicode="&#xc8;" horiz-adv-x="1454" d="M264 0v1470h1039v-116h-752v-541h457v-125h-457v-561h780v-127h-1067zM373 1855l28 64h261l317 -303l-35 -37z" />
<glyph unicode="&#xc9;" horiz-adv-x="1454" d="M264 0v1470h1039v-116h-752v-541h457v-125h-457v-561h780v-127h-1067zM598 1616l317 303h261l28 -64l-571 -276z" />
<glyph unicode="&#xca;" horiz-adv-x="1454" d="M264 0v1470h1039v-116h-752v-541h457v-125h-457v-561h780v-127h-1067zM383 1618l377 346l375 -344l-37 -45l-338 164l-346 -164z" />
<glyph unicode="&#xcb;" horiz-adv-x="1454" d="M264 0v1470h1039v-116h-752v-541h457v-125h-457v-561h780v-127h-1067zM375 1808q0 55 38.5 94.5t92.5 39.5q55 0 94 -39t39 -95q0 -55 -38.5 -93t-94.5 -38q-54 0 -92.5 38t-38.5 93zM807 1808q0 56 38 95t93 39q54 0 93.5 -39.5t39.5 -94.5t-39 -93t-94 -38 q-56 0 -93.5 37.5t-37.5 93.5z" />
<glyph unicode="&#xcc;" horiz-adv-x="825" d="M-2 1855l29 64h260l317 -303l-35 -37zM264 0v1470h287v-1470h-287z" />
<glyph unicode="&#xcd;" horiz-adv-x="825" d="M264 0v1470h287v-1470h-287zM268 1616l318 303h260l28 -64l-571 -276z" />
<glyph unicode="&#xce;" horiz-adv-x="825" d="M70 1618l376 346l375 -344l-37 -45l-338 164l-346 -164zM264 0v1470h287v-1470h-287z" />
<glyph unicode="&#xcf;" horiz-adv-x="825" d="M96 1808q0 55 38.5 94.5t92.5 39.5q55 0 94 -39t39 -95q0 -55 -38.5 -93t-94.5 -38q-54 0 -92.5 38t-38.5 93zM264 0v1470h287v-1470h-287zM528 1808q0 56 38 95t93 39q54 0 94 -39.5t40 -94.5t-39.5 -93t-94.5 -38t-93 37.5t-38 93.5z" />
<glyph unicode="&#xd1;" horiz-adv-x="1669" d="M242 0v1473h137v-3h16l897 -913v913h138v-1501l-1051 1075v-1044h-137zM485 1661q5 104 59.5 184t143.5 80q62 0 166.5 -48t146.5 -48q80 0 116 29.5t38 62.5l27 -4q-2 -50 -14.5 -96t-35.5 -86.5t-62 -64.5t-89 -25q-43 -1 -97.5 24.5t-111.5 51.5t-106 26 q-75 0 -113.5 -24.5t-40.5 -65.5z" />
<glyph unicode="&#xd2;" horiz-adv-x="1660" d="M92 731q0 348 203.5 565t533.5 217q171 0 311.5 -60t232.5 -165t142.5 -246.5t51.5 -306.5q1 -356 -198.5 -566t-539.5 -216q-338 5 -537.5 213.5t-199.5 564.5zM414 733q0 -104 13.5 -197t45 -179t78.5 -147.5t118 -98.5t160 -37q88 0 159.5 37t118.5 99t78.5 147.5 t45.5 179t14 196.5q0 129 -23 243t-70.5 209t-130.5 151t-192 57q-88 1 -159 -36t-118 -99.5t-78.5 -148.5t-45.5 -179.5t-14 -196.5zM424 1855l29 64h260l317 -303l-35 -37z" />
<glyph unicode="&#xd3;" horiz-adv-x="1660" d="M92 731q0 348 203.5 565t533.5 217q171 0 311.5 -60t232.5 -165t142.5 -246.5t51.5 -306.5q1 -356 -198.5 -566t-539.5 -216q-338 5 -537.5 213.5t-199.5 564.5zM414 733q0 -104 13.5 -197t45 -179t78.5 -147.5t118 -98.5t160 -37q88 0 159.5 37t118.5 99t78.5 147.5 t45.5 179t14 196.5q0 129 -23 243t-70.5 209t-130.5 151t-192 57q-88 1 -159 -36t-118 -99.5t-78.5 -148.5t-45.5 -179.5t-14 -196.5zM670 1616l317 303h260l29 -64l-571 -276z" />
<glyph unicode="&#xd4;" horiz-adv-x="1660" d="M92 731q0 348 203.5 565t533.5 217q171 0 311.5 -60t232.5 -165t142.5 -246.5t51.5 -306.5q1 -356 -198.5 -566t-539.5 -216q-338 5 -537.5 213.5t-199.5 564.5zM414 733q0 -104 13.5 -197t45 -179t78.5 -147.5t118 -98.5t160 -37q88 0 159.5 37t118.5 99t78.5 147.5 t45.5 179t14 196.5q0 129 -23 243t-70.5 209t-130.5 151t-192 57q-88 1 -159 -36t-118 -99.5t-78.5 -148.5t-45.5 -179.5t-14 -196.5zM455 1618l376 346l375 -344l-37 -45l-338 164l-346 -164z" />
<glyph unicode="&#xd5;" horiz-adv-x="1660" d="M92 731q0 348 203.5 565t533.5 217q171 0 311.5 -60t232.5 -165t142.5 -246.5t51.5 -306.5q1 -356 -198.5 -566t-539.5 -216q-338 5 -537.5 213.5t-199.5 564.5zM414 733q0 -104 13.5 -197t45 -179t78.5 -147.5t118 -98.5t160 -37q88 0 159.5 37t118.5 99t78.5 147.5 t45.5 179t14 196.5q0 129 -23 243t-70.5 209t-130.5 151t-192 57q-88 1 -159 -36t-118 -99.5t-78.5 -148.5t-45.5 -179.5t-14 -196.5zM522 1663q5 104 59.5 184t143.5 80q62 0 166.5 -48t146.5 -48q80 0 116 29.5t38 62.5l27 -4q-2 -50 -14.5 -96t-35.5 -86.5t-62 -64.5 t-89 -25q-43 -1 -97.5 24.5t-112 51.5t-106.5 26q-75 0 -113 -24t-40 -66z" />
<glyph unicode="&#xd6;" horiz-adv-x="1660" d="M92 731q0 348 203.5 565t533.5 217q171 0 311.5 -60t232.5 -165t142.5 -246.5t51.5 -306.5q1 -356 -198.5 -566t-539.5 -216q-338 5 -537.5 213.5t-199.5 564.5zM414 733q0 -104 13.5 -197t45 -179t78.5 -147.5t118 -98.5t160 -37q88 0 159.5 37t118.5 99t78.5 147.5 t45.5 179t14 196.5q0 129 -23 243t-70.5 209t-130.5 151t-192 57q-88 1 -159 -36t-118 -99.5t-78.5 -148.5t-45.5 -179.5t-14 -196.5zM481 1808q0 55 38.5 94.5t92.5 39.5q55 0 94 -39t39 -95q0 -55 -38.5 -93t-94.5 -38q-54 0 -92.5 38t-38.5 93zM913 1808q0 56 38 95 t93 39q54 0 94 -39.5t40 -94.5t-39.5 -93t-94.5 -38q-56 0 -93.5 37.5t-37.5 93.5z" />
<glyph unicode="&#xd9;" horiz-adv-x="1648" d="M233 586v884h308v-927q0 -77 9 -138.5t34 -119t65 -95.5t105.5 -61t152.5 -23q90 0 158 30t118.5 94t76.5 170.5t26 254.5l-2 815h152v-835q0 -109 -15.5 -202.5t-56 -185.5t-105 -156.5t-170 -104t-243.5 -39.5q-140 0 -246.5 31.5t-175.5 86t-112.5 136.5t-61 175.5 t-17.5 209.5zM438 1855l29 64h260l317 -303l-34 -37z" />
<glyph unicode="&#xda;" horiz-adv-x="1648" d="M233 586v884h308v-927q0 -77 9 -138.5t34 -119t65 -95.5t105.5 -61t152.5 -23q90 0 158 30t118.5 94t76.5 170.5t26 254.5l-2 815h152v-835q0 -109 -15.5 -202.5t-56 -185.5t-105 -156.5t-170 -104t-243.5 -39.5q-140 0 -246.5 31.5t-175.5 86t-112.5 136.5t-61 175.5 t-17.5 209.5zM784 1616l318 303h260l29 -64l-572 -276z" />
<glyph unicode="&#xdb;" horiz-adv-x="1648" d="M233 586v884h308v-927q0 -77 9 -138.5t34 -119t65 -95.5t105.5 -61t152.5 -23q90 0 158 30t118.5 94t76.5 170.5t26 254.5l-2 815h152v-835q0 -109 -15.5 -202.5t-56 -185.5t-105 -156.5t-170 -104t-243.5 -39.5q-140 0 -246.5 31.5t-175.5 86t-112.5 136.5t-61 175.5 t-17.5 209.5zM551 1618l377 346l375 -344l-37 -45l-338 164l-346 -164z" />
<glyph unicode="&#xdc;" horiz-adv-x="1648" d="M233 586v884h308v-927q0 -77 9 -138.5t34 -119t65 -95.5t105.5 -61t152.5 -23q90 0 158 30t118.5 94t76.5 170.5t26 254.5l-2 815h152v-835q0 -109 -15.5 -202.5t-56 -185.5t-105 -156.5t-170 -104t-243.5 -39.5q-140 0 -246.5 31.5t-175.5 86t-112.5 136.5t-61 175.5 t-17.5 209.5zM573 1808q0 55 39 94.5t93 39.5q55 0 94 -39t39 -95q0 -55 -38.5 -93t-94.5 -38q-54 0 -93 38t-39 93zM1006 1808q0 56 38 95t93 39q54 0 93.5 -39.5t39.5 -94.5t-39 -93t-94 -38t-93 37.5t-38 93.5z" />
<glyph unicode="&#xdd;" horiz-adv-x="1503" d="M133 1470h324l413 -755l433 753h143l-526 -882v-586h-287v555zM770 1616l317 303h261l28 -64l-571 -276z" />
<glyph unicode="&#xe0;" horiz-adv-x="1087" d="M113 205q0 115 75.5 198t180.5 115q47 14 97 23t80.5 11.5t82 5.5t71.5 5l2 121q-1 110 -49 169.5t-129 59.5q-64 0 -104 -41t-53 -108l-213 -49q18 123 133.5 210t271.5 87h33q71 0 129.5 -18t108.5 -57t78 -111t28 -171v-632l-182 -56l-52 189q-50 -82 -144.5 -133.5 t-195.5 -51.5q-67 0 -118 23t-78 60t-40 75t-13 76zM311 1427l29 62h219l6 -8q32 -43 126.5 -192.5t103.5 -162.5l-35 -36zM356 223q0 -44 31.5 -71t73.5 -27q64 0 134 40.5t101 113.5l2 215q-55 -12 -202 -68q-140 -62 -140 -203z" />
<glyph unicode="&#xe1;" horiz-adv-x="1087" d="M113 205q0 115 75.5 198t180.5 115q47 14 97 23t80.5 11.5t82 5.5t71.5 5l2 121q-1 110 -49 169.5t-129 59.5q-64 0 -104 -41t-53 -108l-213 -49q18 123 133.5 210t271.5 87h33q71 0 129.5 -18t108.5 -57t78 -111t28 -171v-632l-182 -56l-52 189q-50 -82 -144.5 -133.5 t-195.5 -51.5q-67 0 -118 23t-78 60t-40 75t-13 76zM356 223q0 -44 31.5 -71t73.5 -27q64 0 134 40.5t101 113.5l2 215q-55 -12 -202 -68q-140 -62 -140 -203zM473 1126q9 13 103 162.5t126 192.5l7 8h219l28 -62l-448 -337z" />
<glyph unicode="&#xe2;" horiz-adv-x="1087" d="M113 205q0 115 75.5 198t180.5 115q47 14 97 23t80.5 11.5t82 5.5t71.5 5l2 121q-1 110 -49 169.5t-129 59.5q-64 0 -104 -41t-53 -108l-213 -49q18 123 133.5 210t271.5 87h33q71 0 129.5 -18t108.5 -57t78 -111t28 -171v-632l-182 -56l-52 189q-50 -82 -144.5 -133.5 t-195.5 -51.5q-67 0 -118 23t-78 60t-40 75t-13 76zM225 1157l336 346l334 -344l-37 -45l-297 164l-305 -164zM356 223q0 -44 31.5 -71t73.5 -27q64 0 134 40.5t101 113.5l2 215q-55 -12 -202 -68q-140 -62 -140 -203z" />
<glyph unicode="&#xe3;" horiz-adv-x="1087" d="M113 205q0 115 75.5 198t180.5 115q47 14 97 23t80.5 11.5t82 5.5t71.5 5l2 121q-1 110 -49 169.5t-129 59.5q-64 0 -104 -41t-53 -108l-213 -49q18 123 133.5 210t271.5 87h33q71 0 129.5 -18t108.5 -57t78 -111t28 -171v-632l-182 -56l-52 189q-50 -82 -144.5 -133.5 t-195.5 -51.5q-67 0 -118 23t-78 60t-40 75t-13 76zM276 1190q5 97 52.5 170.5t126.5 73.5q54 0 145.5 -44t128.5 -44q70 0 101.5 27t33.5 57l23 -5q-3 -64 -20 -117t-57.5 -92t-98.5 -40q-45 -1 -135 46.5t-142 47.5q-66 0 -99.5 -22.5t-35.5 -61.5zM356 223 q0 -44 31.5 -71t73.5 -27q64 0 134 40.5t101 113.5l2 215q-55 -12 -202 -68q-140 -62 -140 -203z" />
<glyph unicode="&#xe4;" horiz-adv-x="1087" d="M113 205q0 115 75.5 198t180.5 115q47 14 97 23t80.5 11.5t82 5.5t71.5 5l2 121q-1 110 -49 169.5t-129 59.5q-64 0 -104 -41t-53 -108l-213 -49q18 123 133.5 210t271.5 87h33q71 0 129.5 -18t108.5 -57t78 -111t28 -171v-632l-182 -56l-52 189q-50 -82 -144.5 -133.5 t-195.5 -51.5q-67 0 -118 23t-78 60t-40 75t-13 76zM248 1319q0 53 36.5 90t88.5 37q53 0 90 -37t37 -90q0 -52 -37 -88.5t-90 -36.5t-89 36t-36 89zM356 223q0 -44 31.5 -71t73.5 -27q64 0 134 40.5t101 113.5l2 215q-55 -12 -202 -68q-140 -62 -140 -203zM618 1319 q0 53 36.5 90t88.5 37q53 0 90 -37t37 -90q0 -52 -37 -88.5t-90 -36.5t-89 36t-36 89z" />
<glyph unicode="&#xe5;" horiz-adv-x="1087" d="M113 205q0 115 75.5 198t180.5 115q47 14 97 23t80.5 11.5t82 5.5t71.5 5l2 121q-1 110 -49 169.5t-129 59.5q-64 0 -104 -41t-53 -108l-213 -49q18 123 133.5 210t271.5 87h33q71 0 129.5 -18t108.5 -57t78 -111t28 -171v-632l-182 -56l-52 189q-50 -82 -144.5 -133.5 t-195.5 -51.5q-67 0 -118 23t-78 60t-40 75t-13 76zM356 223q0 -44 31.5 -71t73.5 -27q64 0 134 40.5t101 113.5l2 215q-55 -12 -202 -68q-140 -62 -140 -203zM358 1323q0 81 62.5 124.5t161.5 43.5t162 -43.5t63 -124.5t-63 -123.5t-162 -42.5t-161.5 42.5t-62.5 123.5z M494 1325q0 -98 90 -98t90 98q0 100 -90 100t-90 -100z" />
<glyph unicode="&#xe6;" horiz-adv-x="1691" d="M92 205q0 100 73.5 166t182.5 92q16 4 51.5 11.5t54.5 12t52 13t52 17t44.5 21.5t40 28t29 34.5t20.5 44t6 53.5h2q-6 101 -64.5 158t-141.5 57q-59 0 -115.5 -12.5t-77.5 -40.5q64 -25 89.5 -62t25.5 -93q0 -59 -44 -101.5t-102 -42.5q-68 0 -105.5 46.5t-37.5 119.5 q0 96 123 190.5t278 94.5h35q205 0 277 -144q133 133 344 133q54 0 106 -10.5t106.5 -37.5t96 -67t70.5 -105.5t34 -147.5h2v-103h-655v-49q0 -155 89 -238t216 -83q59 0 105.5 11t78 27t62 48t49 58t47.5 73q0 -111 -63.5 -204t-162 -143t-206.5 -50q-146 0 -250 63.5 t-161 173.5q-38 -109 -139.5 -177.5t-237.5 -68.5q-139 0 -209 67t-70 167zM344 223q0 -44 32.5 -71t74.5 -27q85 0 158.5 45t103.5 139q-21 70 -21 150v16l2 47q-62 -74 -194 -125q-86 -37 -121 -76t-35 -98zM946 633h412q0 143 -40 207.5t-149 64.5q-96 0 -157.5 -73 t-65.5 -199z" />
<glyph unicode="&#xe7;" horiz-adv-x="1054" d="M82 459q0 244 149.5 393t384.5 149q138 0 237 -74t108 -188l-181 -34q0 34 -1.5 53.5t-11 51.5t-27.5 49.5t-55.5 31.5t-90.5 14q-118 0 -199.5 -93.5t-81.5 -238.5q0 -185 94.5 -296t245.5 -111q145 0 275 90l14 -109q-39 -65 -129 -113t-215 -54l-74 -95 q75 -20 130 -75t55 -125q0 -61 -32.5 -108t-83.5 -72t-104 -37.5t-104 -12.5q-92 0 -143 51q8 1 37.5 5t44 6.5t42 8.5t43 12.5t36.5 18t32 25.5t19 34t8 44q0 46 -39.5 83t-106.5 50l142 191q-189 23 -303.5 154.5t-114.5 320.5z" />
<glyph unicode="&#xe8;" horiz-adv-x="1064" d="M82 471q0 144 60 264t174 193t259 73q54 0 108.5 -11t111.5 -38t101 -67.5t74 -105.5t34 -146v-15v-26v-62h-691q8 -156 99 -250t241 -94h2q130 0 291 111l15 -109q-45 -75 -152 -141.5t-238 -66.5h-8q-92 0 -171 27t-135.5 73.5t-96 109t-59 134t-19.5 147.5zM303 1427 l29 62h219l6 -8q32 -43 126 -192.5t103 -162.5l-34 -36zM313 633h428q0 125 -50.5 198.5t-145.5 73.5q-90 0 -161 -74.5t-71 -197.5z" />
<glyph unicode="&#xe9;" horiz-adv-x="1064" d="M82 471q0 144 60 264t174 193t259 73q54 0 108.5 -11t111.5 -38t101 -67.5t74 -105.5t34 -146v-15v-26v-62h-691q8 -156 99 -250t241 -94h2q130 0 291 111l15 -109q-45 -75 -152 -141.5t-238 -66.5h-8q-92 0 -171 27t-135.5 73.5t-96 109t-59 134t-19.5 147.5zM313 633 h428q0 125 -50.5 198.5t-145.5 73.5q-90 0 -161 -74.5t-71 -197.5zM440 1126q9 13 103.5 162.5t126.5 192.5l6 8h219l29 -62l-449 -337z" />
<glyph unicode="&#xea;" horiz-adv-x="1064" d="M82 471q0 144 60 264t174 193t259 73q54 0 108.5 -11t111.5 -38t101 -67.5t74 -105.5t34 -146v-15v-26v-62h-691q8 -156 99 -250t241 -94h2q130 0 291 111l15 -109q-45 -75 -152 -141.5t-238 -66.5h-8q-92 0 -171 27t-135.5 73.5t-96 109t-59 134t-19.5 147.5zM250 1157 l336 346l334 -344l-37 -45l-297 164l-305 -164zM313 633h428q0 125 -50.5 198.5t-145.5 73.5q-90 0 -161 -74.5t-71 -197.5z" />
<glyph unicode="&#xeb;" horiz-adv-x="1064" d="M82 471q0 144 60 264t174 193t259 73q54 0 108.5 -11t111.5 -38t101 -67.5t74 -105.5t34 -146v-15v-26v-62h-691q8 -156 99 -250t241 -94h2q130 0 291 111l15 -109q-45 -75 -152 -141.5t-238 -66.5h-8q-92 0 -171 27t-135.5 73.5t-96 109t-59 134t-19.5 147.5zM260 1319 q0 53 36.5 90t88.5 37q53 0 90 -37t37 -90q0 -52 -37 -88.5t-90 -36.5t-89 36t-36 89zM313 633h428q0 125 -50.5 198.5t-145.5 73.5q-90 0 -161 -74.5t-71 -197.5zM631 1319q0 53 36.5 90t88.5 37t89.5 -37t37.5 -90q0 -52 -37 -88.5t-90 -36.5q-52 0 -88.5 36t-36.5 89z " />
<glyph unicode="&#xec;" horiz-adv-x="651" d="M2 1427l29 62h219l6 -8q32 -43 126 -192.5t103 -162.5l-34 -36zM70 0l147 143v586l-147 74l147 90l27 16l94 58l125 75v-899l158 -143h-551z" />
<glyph unicode="&#xed;" horiz-adv-x="651" d="M70 0l147 143v586l-147 74l147 90l27 16l94 58l125 75v-899l158 -143h-551zM268 1126q9 13 103.5 162.5t126.5 192.5l6 8h219l29 -62l-449 -337z" />
<glyph unicode="&#xee;" horiz-adv-x="651" d="M12 1157l336 346l334 -344l-37 -45l-297 164l-305 -164zM70 0l147 143v586l-147 74l147 90l27 16l94 58l125 75v-899l158 -143h-551z" />
<glyph unicode="&#xef;" horiz-adv-x="651" d="M35 1319q0 53 36.5 90t88.5 37t89.5 -37t37.5 -90q0 -52 -37 -88.5t-90 -36.5q-52 0 -88.5 36t-36.5 89zM70 0l147 143v586l-147 74l147 90l27 16l94 58l125 75v-899l158 -143h-551zM406 1319q0 53 36 90t88 37t89.5 -37t37.5 -90q0 -52 -37 -88.5t-90 -36.5 q-52 0 -88 36t-36 89z" />
<glyph unicode="&#xf1;" horiz-adv-x="1257" d="M143 0v903l185 123l47 -199q52 86 129 130t192 44q150 0 241 -92.5t91 -263.5l-2 -645h-246l2 584q0 85 -7 126.5t-30 75.5q-44 68 -153 68q-53 0 -92.5 -18t-61.5 -48t-32.5 -54.5t-16.5 -51.5v-682h-246zM387 1190q5 97 52 170.5t126 73.5q54 0 146 -44t129 -44 q70 0 101.5 27t33.5 57l22 -5q-3 -64 -20 -117t-57.5 -92t-98.5 -40q-38 -1 -86 22.5t-97.5 47.5t-92.5 24q-66 0 -99.5 -22.5t-35.5 -61.5z" />
<glyph unicode="&#xf2;" horiz-adv-x="1196" d="M82 487q0 230 143.5 372t372.5 142q236 0 375 -143.5t141 -365.5q0 -235 -140.5 -371t-375.5 -141q-235 3 -375.5 138t-140.5 369zM279 1427l28 62h219l6 -8q32 -43 126.5 -192.5t103.5 -162.5l-35 -36zM367 489q0 -411 231 -411t231 411q0 413 -231 416 q-66 1 -112.5 -32.5t-71.5 -94t-36 -131t-11 -158.5z" />
<glyph unicode="&#xf3;" horiz-adv-x="1196" d="M82 487q0 230 143.5 372t372.5 142q236 0 375 -143.5t141 -365.5q0 -235 -140.5 -371t-375.5 -141q-235 3 -375.5 138t-140.5 369zM367 489q0 -411 231 -411t231 411q0 413 -231 416q-66 1 -112.5 -32.5t-71.5 -94t-36 -131t-11 -158.5zM504 1126q9 13 103 162.5 t126 192.5l6 8h219l29 -62l-448 -337z" />
<glyph unicode="&#xf4;" horiz-adv-x="1196" d="M82 487q0 230 143.5 372t372.5 142q236 0 375 -143.5t141 -365.5q0 -235 -140.5 -371t-375.5 -141q-235 3 -375.5 138t-140.5 369zM281 1157l335 346l334 -344l-37 -45l-297 164l-305 -164zM367 489q0 -411 231 -411t231 411q0 413 -231 416q-66 1 -112.5 -32.5 t-71.5 -94t-36 -131t-11 -158.5z" />
<glyph unicode="&#xf5;" horiz-adv-x="1196" d="M82 487q0 230 143.5 372t372.5 142q236 0 375 -143.5t141 -365.5q0 -235 -140.5 -371t-375.5 -141q-235 3 -375.5 138t-140.5 369zM334 1190q5 97 52 170.5t126 73.5q54 0 145.5 -44t128.5 -44q70 0 102 27t34 57l22 -5q-3 -64 -20 -117t-57.5 -92t-98.5 -40 q-38 -1 -86 22.5t-97.5 47.5t-92.5 24q-66 0 -100 -22.5t-36 -61.5zM367 489q0 -411 231 -411t231 411q0 413 -231 416q-66 1 -112.5 -32.5t-71.5 -94t-36 -131t-11 -158.5z" />
<glyph unicode="&#xf6;" horiz-adv-x="1196" d="M82 487q0 230 143.5 372t372.5 142q236 0 375 -143.5t141 -365.5q0 -235 -140.5 -371t-375.5 -141q-235 3 -375.5 138t-140.5 369zM305 1319q0 53 36.5 90t88.5 37t89.5 -37t37.5 -90q0 -52 -37 -88.5t-90 -36.5q-52 0 -88.5 36t-36.5 89zM367 489q0 -411 231 -411 t231 411q0 413 -231 416q-66 1 -112.5 -32.5t-71.5 -94t-36 -131t-11 -158.5zM676 1319q0 53 36.5 90t88.5 37q53 0 90 -37t37 -90q0 -52 -37 -88.5t-90 -36.5t-89 36t-36 89z" />
<glyph unicode="&#xf9;" horiz-adv-x="1222" d="M164 334l2 557l246 151l-2 -634q2 -141 42.5 -210t147.5 -69q49 0 86 15.5t57 41.5t30.5 49.5t14.5 49.5v606l246 151v-997l-184 -92l-47 199q-50 -88 -123 -131.5t-188 -43.5q-150 0 -239 93t-89 264zM375 1427l28 62h220l6 -8q32 -43 126 -192.5t103 -162.5l-35 -36z " />
<glyph unicode="&#xfa;" horiz-adv-x="1222" d="M164 334l2 557l246 151l-2 -634q2 -141 42.5 -210t147.5 -69q49 0 86 15.5t57 41.5t30.5 49.5t14.5 49.5v606l246 151v-997l-184 -92l-47 199q-50 -88 -123 -131.5t-188 -43.5q-150 0 -239 93t-89 264zM496 1126q9 13 103 162.5t126 192.5l6 8h219l29 -62l-449 -337z" />
<glyph unicode="&#xfb;" horiz-adv-x="1222" d="M164 334l2 557l246 151l-2 -634q2 -141 42.5 -210t147.5 -69q49 0 86 15.5t57 41.5t30.5 49.5t14.5 49.5v606l246 151v-997l-184 -92l-47 199q-50 -88 -123 -131.5t-188 -43.5q-150 0 -239 93t-89 264zM289 1157l336 346l333 -344l-36 -45l-297 164l-306 -164z" />
<glyph unicode="&#xfc;" horiz-adv-x="1222" d="M164 334l2 557l246 151l-2 -634q2 -141 42.5 -210t147.5 -69q49 0 86 15.5t57 41.5t30.5 49.5t14.5 49.5v606l246 151v-997l-184 -92l-47 199q-50 -88 -123 -131.5t-188 -43.5q-150 0 -239 93t-89 264zM311 1319q0 53 36.5 90t88.5 37t89.5 -37t37.5 -90q0 -52 -37 -88.5 t-90 -36.5q-52 0 -88.5 36t-36.5 89zM682 1319q0 53 36.5 90t88.5 37q53 0 90 -37t37 -90q0 -52 -37 -88.5t-90 -36.5t-89 36t-36 89z" />
<glyph unicode="&#xfd;" horiz-adv-x="1077" d="M37 981h266l299 -664l297 664h123l-502 -1126q-64 -127 -125.5 -194t-128.5 -91.5t-168 -24.5l2 62q152 0 320 304q3 5 4 7l49 113zM539 1126q9 13 103 162.5t126 192.5l6 8h219l29 -62l-449 -337z" />
<glyph unicode="&#xff;" horiz-adv-x="1077" d="M37 981h266l299 -664l297 664h123l-502 -1126q-64 -127 -125.5 -194t-128.5 -91.5t-168 -24.5l2 62q152 0 320 304q3 5 4 7l49 113zM289 1319q0 53 36.5 90t88.5 37t89.5 -37t37.5 -90q0 -52 -37 -88.5t-90 -36.5q-52 0 -88.5 36t-36.5 89zM659 1319q0 53 36.5 90 t88.5 37t89.5 -37t37.5 -90q0 -52 -37 -88.5t-90 -36.5q-52 0 -88.5 36t-36.5 89z" />
<glyph unicode="&#x152;" horiz-adv-x="2357" d="M92 731q0 348 203.5 565t533.5 217q148 0 267 -43h1118l20 -530l-278 414h-502v-541h264l193 287v-699l-193 287h-264v-561h535l327 465l-82 -592h-1130q-124 -44 -275 -47q-338 5 -537.5 213.5t-199.5 564.5zM414 733q0 -104 13.5 -197t45 -179t78.5 -147.5t118 -98.5 t160 -37q122 0 208 43.5t130 122.5v940q-25 92 -117.5 152t-220.5 61q-88 1 -159 -36t-118 -99.5t-78.5 -148.5t-45.5 -179.5t-14 -196.5z" />
<glyph unicode="&#x153;" horiz-adv-x="1835" d="M92 487q0 230 140.5 372t369.5 142q112 0 209.5 -40.5t161.5 -120.5q62 80 159 120.5t195 40.5q54 0 106 -10.5t106.5 -37.5t96.5 -67t71 -105.5t34 -147.5h2v-103h-656v-49q0 -79 25.5 -142t69 -101t97.5 -58t114 -20q59 0 105.5 11t78 27t62 48t49 58t47.5 73 q0 -111 -63.5 -204t-162 -143t-206.5 -50q-101 0 -193.5 37.5t-142.5 109.5q-58 -70 -163.5 -107.5t-201.5 -39.5q-234 3 -372 138t-138 369zM371 489q0 -411 231 -411q232 0 232 411q0 68 -6.5 126.5t-23.5 112.5t-42.5 92.5t-66.5 61t-93 23.5q-66 1 -112.5 -32.5 t-71.5 -94t-36 -131t-11 -158.5zM1090 633h411q0 143 -39.5 207.5t-148.5 64.5q-96 0 -157.5 -73t-65.5 -199z" />
<glyph unicode="&#x178;" horiz-adv-x="1503" d="M133 1470h324l413 -755l433 753h143l-526 -882v-586h-287v555zM539 1808q0 55 38.5 94.5t92.5 39.5q55 0 94 -39t39 -95q0 -55 -38.5 -93t-94.5 -38q-54 0 -92.5 38t-38.5 93zM971 1808q0 56 38 95t93 39q54 0 93.5 -39.5t39.5 -94.5t-39 -93t-94 -38q-56 0 -93.5 37.5 t-37.5 93.5z" />
<glyph unicode="&#x2c6;" horiz-adv-x="1705" d="M473 1157l336 346l334 -344l-37 -45l-297 164l-305 -164z" />
<glyph unicode="&#x2dc;" horiz-adv-x="1705" d="M57 1006q5 97 52.5 170t126.5 73q54 0 145.5 -44t128.5 -44q70 0 101.5 27t33.5 57l23 -4q-3 -64 -20 -117t-57.5 -92.5t-98.5 -40.5q-45 -1 -135 46.5t-142 47.5q-66 0 -99.5 -22.5t-35.5 -61.5z" />
<glyph unicode="&#x2000;" horiz-adv-x="992" />
<glyph unicode="&#x2001;" horiz-adv-x="1985" />
<glyph unicode="&#x2002;" horiz-adv-x="992" />
<glyph unicode="&#x2003;" horiz-adv-x="1985" />
<glyph unicode="&#x2004;" horiz-adv-x="661" />
<glyph unicode="&#x2005;" horiz-adv-x="496" />
<glyph unicode="&#x2006;" horiz-adv-x="330" />
<glyph unicode="&#x2007;" horiz-adv-x="330" />
<glyph unicode="&#x2008;" horiz-adv-x="248" />
<glyph unicode="&#x2009;" horiz-adv-x="397" />
<glyph unicode="&#x200a;" horiz-adv-x="110" />
<glyph unicode="&#x2010;" horiz-adv-x="788" d="M123 451v139h543v-139h-543z" />
<glyph unicode="&#x2011;" horiz-adv-x="788" d="M123 451v139h543v-139h-543z" />
<glyph unicode="&#x2012;" horiz-adv-x="788" d="M123 451v139h543v-139h-543z" />
<glyph unicode="&#x2013;" horiz-adv-x="1269" d="M123 451v139h1024v-139h-1024z" />
<glyph unicode="&#x2014;" horiz-adv-x="2293" d="M123 451v139h2048v-139h-2048z" />
<glyph unicode="&#x2018;" horiz-adv-x="520" d="M61 1057q0 68 23 134.5t53.5 112.5t71 88t66 62.5t47.5 34.5q21 9 35 8.5t18 -6.5q9 -19 -6 -37q-2 -3 -16.5 -21.5t-20.5 -27.5t-19.5 -29t-20 -35t-15 -35t-12 -41t-3.5 -42q0 -34 19 -53t36 -21q1 -1 11.5 -6.5t17.5 -10t19 -14t20 -20.5t16.5 -26t12.5 -34.5t4 -42.5 q0 -68 -49 -116t-125 -48q-72 0 -127.5 62.5t-55.5 163.5z" />
<glyph unicode="&#x2019;" horiz-adv-x="520" d="M102 1309q0 68 49 116t125 48q72 0 127.5 -62.5t55.5 -163.5q0 -68 -22.5 -134.5t-53.5 -112.5t-71 -88t-65.5 -62.5t-47.5 -34.5q-21 -9 -35.5 -8.5t-18.5 6.5q-9 18 7 37q1 1 16.5 21.5t20.5 28l19 28.5t20 35t14.5 35t12 41.5t3.5 41.5q0 34 -19 53t-36 21 q-1 1 -11.5 6.5t-17.5 10t-19 14t-20 20.5t-16.5 26t-12.5 34.5t-4 42.5z" />
<glyph unicode="&#x201c;" horiz-adv-x="958" d="M61 1057q0 68 23 134.5t53.5 112.5t71 88t66 62.5t47.5 34.5q21 9 35 8.5t18 -6.5q9 -19 -6 -37q-2 -3 -16.5 -21.5t-20.5 -27.5t-19.5 -29t-20 -35t-15 -35t-12 -41t-3.5 -42q0 -34 19 -53t36 -21q1 -1 11.5 -6.5t17.5 -10t19 -14t20 -20.5t16.5 -26t12.5 -34.5t4 -42.5 q0 -68 -49 -116t-125 -48q-72 0 -127.5 62.5t-55.5 163.5zM500 1057q0 68 22.5 134.5t53.5 112.5t71 88t65.5 62.5t47.5 34.5q21 9 35 8.5t18 -6.5q9 -19 -6 -37q-2 -3 -16.5 -21.5t-20.5 -27.5t-19.5 -29t-20 -35t-15 -35t-12 -41t-3.5 -42q0 -34 19.5 -53t36.5 -21 q1 0 11.5 -6t17 -10.5t18.5 -14t20 -20.5t16.5 -26t12.5 -34.5t4 -42.5q0 -68 -49 -116t-125 -48q-72 0 -127 62.5t-55 163.5z" />
<glyph unicode="&#x201d;" horiz-adv-x="958" d="M102 1309q0 68 49 116t125 48q72 0 127.5 -62.5t55.5 -163.5q0 -68 -22.5 -134.5t-53.5 -112.5t-71 -88t-65.5 -62.5t-47.5 -34.5q-21 -9 -35.5 -8.5t-18.5 6.5q-9 18 7 37q1 1 16.5 21.5t20.5 28l19 28.5t20 35t14.5 35t12 41.5t3.5 41.5q0 34 -19 53t-36 21 q-1 1 -11.5 6.5t-17.5 10t-19 14t-20 20.5t-16.5 26t-12.5 34.5t-4 42.5zM541 1309q0 68 49 116t125 48q72 0 127 -62.5t55 -163.5q0 -68 -22.5 -134.5t-53.5 -112.5t-71 -88t-65.5 -62.5t-47.5 -34.5q-21 -9 -35 -8.5t-18 6.5q-9 19 6 37q1 1 16.5 21.5t20.5 28l19 28.5 t20 35t14.5 35t12 41.5t3.5 41.5q0 34 -19 53t-36 21q-1 0 -11.5 6t-17 10.5t-18.5 14t-20 20.5t-16.5 26t-12.5 34.5t-4 42.5z" />
<glyph unicode="&#x202f;" horiz-adv-x="397" />
<glyph unicode="&#x205f;" horiz-adv-x="496" />
<glyph unicode="&#x20ac;" horiz-adv-x="1378" d="M102 512l21 123h133q-2 18 -2 55q0 72 6 137h-158l21 123h151q47 267 193 410t375 143q158 0 278 -117l135 136v-539q-17 34 -39.5 81.5t-37 75t-33.5 58.5q-124 193 -256 193q-123 0 -207.5 -118.5t-114.5 -322.5h539l-21 -123h-528q-2 -25 -2 -73q0 -41 4 -119h485 l-20 -123h-453q28 -199 103.5 -317.5t197.5 -118.5q46 0 85 13t66 31t55 50.5t44.5 58.5t40.5 68q20 35 51.5 99t40.5 81v-538l-143 143q-113 -119 -285 -119q-218 0 -367.5 151t-191.5 398h-166z" />
<glyph unicode="&#x25fc;" horiz-adv-x="983" d="M0 0v983h983v-983h-983z" />
</font>
</defs>
</svg>
