<?xml version="1.0" standalone="no"?>
<!DOCTYPE svg PUBLIC "-//W3C//DTD SVG 1.1//EN" "http://www.w3.org/Graphics/SVG/1.1/DTD/svg11.dtd" >
<svg xmlns="http://www.w3.org/2000/svg" xmlns:xlink="http://www.w3.org/1999/xlink" version="1.1">
<metadata></metadata>
<defs>
<font id="untitled5regular" horiz-adv-x="631" >
<font-face units-per-em="2048" ascent="1566" descent="-482" />
<missing-glyph horiz-adv-x="342" />
<glyph horiz-adv-x="0" />
<glyph horiz-adv-x="682" />
<glyph unicode=" "  horiz-adv-x="342" />
<glyph unicode="&#x09;" horiz-adv-x="342" />
<glyph unicode="&#xa0;" horiz-adv-x="342" />
<glyph unicode="!" horiz-adv-x="738" d="M111 242l229 -223l117 12l-229 222zM510.5 103q7.5 -22 30.5 -35q19 -6 40.5 2t30.5 27q9 21 1.5 43.5t-27.5 32.5q-21 9 -42.5 1t-30.5 -29q-10 -20 -2.5 -42z" />
<glyph unicode="&#x26;" horiz-adv-x="805" d="M109 418q24 47 86 67q38 18 86.5 20t92 -16.5t60.5 -54.5q-2 3 -25.5 -2t-43 -9t-23.5 1q-12 39 -30 65t-33 25q-4 11 12 12q41 2 117 -65l10 -9q97 -105 104 -129q-10 -15 -18.5 -17.5t-24.5 1.5t-30 3q-17 -1 -26.5 19.5t-10.5 49.5t0 58.5t4 50.5l2 21 q10 -40 8 -135.5t4 -132.5q-10 -31 -15.5 -115t-8.5 -105q1 -68 9 -54l5 13q14 42 16 145q16 23 78.5 44t91.5 23q68 -53 96 -119q16 -39 0 -38q-3 0 -7 2q-31 8 -101 73.5t-141 151.5q-57 50 -109.5 72t-82 19.5t-46.5 -16.5q-91 -15 -103 -13q-27 47 -3 94z" />
<glyph unicode="(" horiz-adv-x="754" d="M127 171q12 3 60.5 -28t100 -64.5t105 -48.5t75.5 19q5 -10 14.5 -35t15.5 -38t20 -27.5t29 -15t39.5 12t55.5 42.5l-11 -29q-1 -14 38 42q-4 -1 -10.5 -1t-21 2.5t-22.5 9.5t-5.5 24.5t20.5 43.5l-43 -47q-15 -14 7 19q4 7 10 15q-5 -2 -20 -14q-50 -36 -54 -22 q-4 12 16 55q-3 2 -7 6.5t-17 18t-25.5 27t-28 33.5t-28 39t-23 40.5t-15.5 41t-3 38.5t12 34q-4 8 -24 -1q-4 -1 -1 2q2 4 46 57l-11 -28q-3 -15 26 26q5 7 11 15l4 49q-43 -62 -112 -105t-123 -61q-58 -28 -89.5 -65.5t-10.5 -81.5z" />
<glyph unicode=")" horiz-adv-x="557" d="M92 432q-15 -13 7 20q4 7 10 15l-6 -61q-1 -73 35 -30q4 5 9 12l-11 -28q-3 -15 26 26l11 15q5 2 6.5 -3t1.5 -13.5t1.5 -16t5.5 -11.5t15 1.5t29 22.5q4 -23 12.5 -59.5t29 -110.5t45.5 -106.5t47 -0.5q8 -16 -26 -74l-8 -12q0 3 13 28l-67 16q-19 -27 -29 -64.5 t-12 -79t-1 -73t4.5 -68t3.5 -42.5l66 -15q28 33 55 110.5t42.5 142.5t37.5 169q-3 2 -7 6.5t-17 18t-25.5 27t-28 33.5t-28 38.5t-23 40.5t-15.5 41t-3 38t12 34q-10 22 -40 28.5t-59 3t-52.5 2.5t-23.5 26z" />
<glyph unicode="," horiz-adv-x="377" d="M131 154q1 11 6 -7q4 -17 16 -85q22 -123 28 -123q3 3 26 25t36.5 40t4.5 25q-1 1 -5 21t-8.5 47t-9 54.5t-8 46t-4.5 18.5z" />
<glyph unicode="-" d="M109 210l170 -171l241 140l-171 170z" />
<glyph unicode="." horiz-adv-x="373" d="M138 76.5q7 -20.5 28 -29.5q20 -10 42 -4t32 27q9 21 2 43.5t-27 32.5q-21 9 -43 1t-31 -29q-10 -21 -3 -41.5z" />
<glyph unicode="/" horiz-adv-x="744" d="M129 348l78 -562l409 280l-78 562z" />
<glyph unicode="0" horiz-adv-x="598" d="M94 -75q1 -2 13 2q18 -10 30 -9t23 16.5t18 35.5t16.5 49t17.5 56t21 56t27 50q34 48 54 83t36.5 77t9 75t-39.5 55q-18 9 -29.5 8.5t-22.5 -16.5t-18.5 -36t-17 -48.5t-18 -55t-21.5 -56t-28 -50.5q-20 -51 -1 -51q11 0 60 33q30 20 31 10q0 -6 -7 -21q-11 -24 -5 -19 q15 13 45 72q26 49 10 45q-7 -2 -21 -15q-18 -26 -14 -26.5t69 61.5q37 34 38 29q1 -3 -15 -26q-17 -79 4 -110q8 -6 0.5 -16t-45.5 -46q-18 -17 -29 -27q-46 -44 -115 -108q-78 -72 -76 -77zM145 456q11 27 25.5 37.5t33.5 6t41 -20t51 -43.5q20 -14 21.5 -37t-12 -52 t-33 -59.5t-44.5 -65.5l-9 -12q-40 -5 -29 52q12 60 57 124q34 47 39 24q6 -16 29.5 -10.5t55.5 12t61 10.5t46 -16t9 -66q-45 -65 -128.5 -98.5t-126.5 -3.5q-127 122 -87 218z" />
<glyph unicode="1" horiz-adv-x="678" d="M82 547l38 -79l95 46l141 -290l-95 -46l38 -79l268 130l-256 -235l-132 -20l39 683z" />
<glyph unicode="2" horiz-adv-x="1012" d="M101 298q-4 -12 31 -27q32 47 109 71t126 16q-11 23 -2.5 48t31.5 36t60 -0.5t48 -33.5q26 -19 50.5 -44.5t35.5 -34.5t22 -3q-100 -124 -40 -236q-31 22 -79 35t-79 34l296 167l193 -82l-187 -93q-19 8 -25 23t-6 27t-5 14l7 8q3 -3 -9 -12q-32 -26 -63 33q-1 2 -2 5 q-134 46 -371 70q-133 4 -141 -21z" />
<glyph unicode="3" horiz-adv-x="643" d="M123 58q7 -82 82 -133t152 -35q82 10 133 65t48 138q-7 14 -27 22t-35.5 18.5t-15.5 32.5q4 14 -7.5 40.5t-2.5 67.5q-10 21 -29 35.5t-46.5 21t-45 9t-47.5 3.5t-32 1q-28 -13 -52 -41.5t-37 -59t-9.5 -59t28.5 -41.5q53 2 85 41q-3 6 -8.5 14t-7 12t-0.5 11.5t11 18 t28 25.5q16 8 38 -12t46 -17q11 -23 -17 -69q-8 -13 -11 -13q-1 0 0 5l-37 -28q-12 -7 0 9l3 3l67 -109q-18 -25 -37 -28.5t-38 6t-61 38.5q-24 39 -13 75t46 47q40 16 79 -2.5t70 -68.5q-31 -18 -58 -17t-45 15q-44 23 -111.5 4t-85.5 -45z" />
<glyph unicode="4" horiz-adv-x="824" d="M98 -18l180 389l84 288l78 38l-272 -726zM186 12l172 149l314 106q-38 -13 -80.5 -49t-85.5 -72.5t-80 -49.5zM217 643l312 -125l193 -483l-312 125z" />
<glyph unicode="5" horiz-adv-x="715" d="M117 496q36 51 177 98.5t189 14.5q45 -32 48 -36q3 -5 -10 -21q-10 -12 -18 -24q-24 -8 -61 -21t-106 -45.5t-84 -55.5q2 -3 5.5 -7.5t14.5 -19t20 -28.5t23 -35t23.5 -38.5t21 -39t15.5 -36t6.5 -31t-4.5 -22.5l95 82q59 64 55 77q-1 3 -7 0q-56 10 -168 -100 q-72 -70 -67 -94q2 -8 12 -7q6 -4 8.5 -11t2.5 -14v-13q0 -11 1 -13.5t11 2.5q28 -58 95.5 -92.5t120.5 -8.5q51 24 65.5 80t-18.5 109q-27 56 -85.5 76.5t-113.5 -6.5q-32 -14 -93 -17t-83 10q-52 34 -89.5 134.5t-1.5 152.5z" />
<glyph unicode="6" horiz-adv-x="586" d="M145 260q24 76 86 107t136 6q45 -19 61.5 -58t10 -75.5t-13.5 -71.5t-3 -43q-56 -89 -151 -71q-75 22 -113 77.5t-13 128.5zM154 324q2 -34 27 -44q10 24 45 -18q30 -35 27 -48q-1 -6 -14 3q-9 -28 12.5 -52t55.5 -33q31 -7 59.5 17.5t33.5 59.5q12 27 -9 54.5t-53 36.5 q-3 23 -54 -44q-3 -4 0 1q1 2 3 4q6 14 -2 20t-18.5 6.5t-14.5 7.5t8 23q1 29 -8 43q-3 4 11 16l6.5 6.5t8 7.5t11.5 10q15 21 26 17.5t15 -17t15.5 -24.5t27.5 -5q7 17 19 17t28 1t31 21q-5 33 -24 51t-43 21t-51 2.5t-48 -5t-34 0.5q-21 2 -45 -25t-39 -62.5t-13 -69.5z " />
<glyph unicode="7" horiz-adv-x="787" d="M120 345q-5 -2 11 7q17 10 85 46q106 56 106 58q26 -18 117 9t169 63l78 36q-10 -14 -169.5 -104t-169.5 -97q-24 -18 -69.5 -19t-82.5 5t-75 -4z" />
<glyph unicode="8" horiz-adv-x="606" d="M125 -38q-9 -24 22 -24q51 1 137 63q69 50 121 108.5t64 90.5q17 1 17 -2q1 -3 -25 -16l-32 -15q-5 1 -2 11.5t6 27.5t5.5 32.5t-1.5 26t-17 9.5q-16 10 -41.5 37t-43.5 42.5t-48.5 16.5t-66.5 -26q-19 -14 -32 -25t-22 -20t-13.5 -20t-7.5 -19t-2.5 -22.5t1 -24.5t3 -32 t3.5 -38q-2 -24 9 -33.5t25.5 -9.5t28 -6.5t15.5 -24.5q-53 -105 -103 -107zM150 221q-12 -58 142 -200q36 -33 59 -52.5t43.5 -32t31.5 -10.5t15 18q10 57 -141 195q-122 114 -144 94q-4 -4 -6 -12zM155.5 425.5q-3.5 55.5 39.5 94.5q42 39 99.5 30t110.5 -61 q51 -50 55 -106t-39 -94q-39 -36 -98.5 -28.5t-110.5 58.5q-53 51 -56.5 106.5z" />
<glyph unicode="9" horiz-adv-x="588" d="M135 77q5 -33 24.5 -51t43.5 -21t51 -2.5t48 5t34 -0.5q21 -2 45 25t39 62.5t13 69.5t-27 44q-10 -24 -44 16q-29 33 -28 48q0 7 14 -2q9 29 -13 53t-56 33q-31 7 -59.5 -18t-32.5 -60q-12 -27 8.5 -54.5t52.5 -36.5q3 -22 54 44q4 4 1 0q-1 -2 -3 -5q-7 -17 7 -22.5 t24.5 -7.5t-4.5 -26q-1 -29 7 -43q2 -5 1.5 -6t-11.5 -10q-14 -13 -27 -25q-15 -21 -25.5 -17.5t-14.5 17t-15.5 24.5t-27.5 5q-7 -17 -19 -17t-28.5 -0.5t-31.5 -20.5zM148.5 248q6.5 36 13.5 71t3 43q55 90 150 72q75 -22 113.5 -77.5t13.5 -129.5q-25 -76 -86.5 -106.5 t-135.5 -5.5q-45 19 -61.5 58t-10 75z" />
<glyph unicode=":" horiz-adv-x="547" d="M138 108.5q7 -21.5 28 -30.5q20 -10 42 -3t32 27q10 21 2 43t-28 32q-21 9 -42 1.5t-31 -28.5q-10 -20 -3 -41.5zM309 97.5q7 -21.5 28 -30.5q20 -10 42 -3t32 27q10 21 2 43t-28 32q-21 9 -42 1.5t-31 -28.5q-10 -20 -3 -41.5z" />
<glyph unicode=";" horiz-adv-x="576" d="M130 182.5q7 -21.5 28 -30.5q20 -10 41.5 -3t31.5 27q10 21 2.5 43t-27.5 32q-21 9 -42 1.5t-31 -28.5q-10 -20 -3 -41.5zM324 184q1 11 6 -7t19 -92q25 -127 31 -127q3 4 26 25.5t37 39.5t5 25q-1 1 -5.5 22t-10 50l-11 58t-10 49t-5.5 20z" />
<glyph unicode="?" horiz-adv-x="533" d="M100 399q2 -31 22 -64q9 -6 41.5 21t42.5 20q0 1 -2.5 28t4.5 42.5t29 16.5q87 5 141 -19q25 -12 5 -25q-14 -8 -45 -10q-14 9 -64.5 -9t-60.5 -33q-9 -13 22 -89t46 -87q9 -6 35 18t36 17q7 -5 0 5q-2 3 -9 13q-15 19 -12 19q1 0 3 -2q34 9 54.5 34.5t26 57.5t3.5 63 t-10 58q-10 33 -51 60t-84.5 32t-77.5 -18q-28 -23 -46.5 -43t-34.5 -47.5t-14 -58.5zM158 -56.5q-5 66.5 6 120.5q18 65 32 65q9 1 25 -24q4 -39 19 -127t25 -108q-17 -63 -35 -71t-48 38q-19 40 -24 106.5z" />
<glyph unicode="@" horiz-adv-x="910" d="M126.5 363q13.5 121 118.5 215q97 75 195 73.5t158 -81.5q11 -7 -15 -2l-39 9q6 26 3.5 27t-12.5 -20q-3 -7 -7 -16q29 -67 23.5 -150.5t-38.5 -178.5q-31 -45 -92.5 -77t-121.5 -36t-106 23q-80 93 -66.5 214zM561 384q-10 4 3.5 36.5t31.5 63.5l19 30q10 4 47 -44 t75.5 -103t46.5 -60q12 -8 2 -27.5t-35.5 -50t-26.5 -31.5q-7 -9 -42 35t-73 95.5t-48 55.5z" />
<glyph unicode="A" horiz-adv-x="774" d="M107 348l276 176l287 -367q-46 -33 -106.5 -84.5t-106.5 -85.5zM126 -36l160 50l-11 107q5 20 5 40q0 17 -4 35q-8 38 -23 64.5t-23 64.5q-4 17 -4 33q0 21 6 42zM191 59l57 8l32 404l-57 -8z" />
<glyph unicode="B" horiz-adv-x="688" d="M122 271.5q6 23.5 11 39t24 45.5t24.5 38.5t25.5 37.5q87 81 114 128q8 0 49 2q26 2 49 1q14 -1 27 -1q35 -2 49 -11q21 -41 31 -85q6 -24 5 -48q1 -20 -3 -40q-8 -44 -43 -60l-243 -225l-97 112q-16 11 -22.5 27t-0.5 39.5zM125 -119q-16 12 0.5 40t39.5 58.5t20 41.5 q38 57 45 162q30 43 122 53q20 2 37 3q64 0 101 -27q20 -42 31 -88q6 -26 6 -52q0 -20 -3 -40q-8 -46 -43 -62l-240 -221zM177 189l89 249l1 51l128 62q31 15 64 15q25 0 50 -8q59 -20 86 -76l-295 -349q-12 23 -56 45q-29 14 -50 15q-10 0 -17 -4z" />
<glyph unicode="C" horiz-adv-x="535" d="M111 336q27 46 67 54q9 2 16 2q29 0 45 -24q-3 20 -2 55.5t4 69.5l3 34q4 23 8 57q4 28 6 29l3 -3q1 -2 10 -16t18 -27.5t25 -34.5t33 -40q33 -23 43 -60q4 -16 5 -34q0 -22 -7 -46q-12 -42 -31.5 -80.5t-46.5 -77.5q-21 -4 -39 -4q-51 0 -91 30q-54 40 -69 116z" />
<glyph unicode="D" horiz-adv-x="793" d="M92.5 455.5q5.5 -6.5 21 -12t32 -9t31.5 -11t18 -18.5q12 2 24 2q53 0 112 -32q72 -39 125 -113l157 164q-13 24 -69 54q-41 21 -65 22q-9 0 -14 -3q-16 6 -37 6q-14 -1 -29 -3q-39 -6 -91.5 -19.5t-60.5 -13.5q-13 -1 -37 5.5t-44 12.5t-40.5 4.5t-30.5 -16.5 q-8 -13 -2.5 -19.5zM146 202l295 350l256 -475l-296 -350z" />
<glyph unicode="E" horiz-adv-x="1012" d="M105 353l428 -34l15 -111l-428 34zM225 463l251 -82l194 -480l-250 82zM470 -246l179 390l262 81l-179 -390zM571 273l19 250l60 -46l-19 -250z" />
<glyph unicode="F" horiz-adv-x="928" d="M105 352l428 -34l16 -110l-428 34zM226 463l250 -82l195 -480l-250 83zM382 -10l185 135l255 233l-185 -135z" />
<glyph unicode="G" horiz-adv-x="813" d="M94 405l178 181l124 -205l-178 -181zM169.5 489q-0.5 -11 12.5 -32l61 -135q-15 31 -15 64q0 25 8 50q21 59 76 86q31 15 64 15q25 0 50 -9q59 -20 86 -75l-98 -68q-13 25 -108 81q-78 46 -106 46q-6 0 -9 -2q-21 -10 -21.5 -21zM213 248q25 24 89.5 58t92.5 35 q97 -48 192 -61q91 -35 109 -81q3 -10 3 -21q0 -36 -46 -72q-48 -68 -85 -70h-2q-37 0 -98 48q-2 -38 -45 -70q-42 -32 -98 -32h-4q-28 -1 -46 31t-25 72.5t-16.5 90t-20.5 72.5z" />
<glyph unicode="H" horiz-adv-x="877" d="M88 517l285 -106l194 -480l-284 106zM296 -56l179 389l296 98l-179 -389zM361 753l117 11v-759l-116 -11z" />
<glyph unicode="I" horiz-adv-x="420" d="M150 -231v759l117 11v-759z" />
<glyph unicode="J" horiz-adv-x="543" d="M117 173q11 -63 53 -105q37 -37 75 -37l9 1q63 30 98 76q21 28 21 57q0 20 -10 40q2 3 2 10q0 24 -21 94q-29 92 -58 179q-24 72 -24 86q0 3 1 3q4 1 1 -3q-2 -2 -9 -8q-35 -32 -26 -38q2 -2 82.5 -163.5t82.5 -162.5l26 35q12 -27 3.5 -49t-32.5 -33q-27 -8 -55.5 3.5 t-42.5 36.5q-14 7 -38 7q-21 0 -48 -5q-60 -10 -90 -24z" />
<glyph unicode="K" horiz-adv-x="729" d="M92 216l117 12l434 -137l-117 -11zM342 158l35 437q-1 21 41 83.5t41 81.5l-92 -270q2 -36 2 -104v-49v-48q0 -68 2 -104q-2 -7 -5.5 -19t-7.5 -52q-3 -28 -4 -57q0 -13 1 -26zM367 -41l37 204l42 157l-36 -285z" />
<glyph unicode="L" horiz-adv-x="799" d="M80 634l283 -104l194 -481l-283 104zM246 -240l178 389l269 85l-179 -390z" />
<glyph unicode="M" horiz-adv-x="1049" d="M90 362l41 64l581 -245l-102 -71zM175 423l200 -236l144 276l-189 241zM622 330l31 -317l7 317l-5 367zM777 -122v759l117 11v-759z" />
<glyph unicode="N" horiz-adv-x="846" d="M92 367l368 -329l139 273l-368 329zM385 295l56 53q1 36 31 46q14 5 30 5q19 -1 41 -7q41 -12 81.5 -27.5t69.5 -30.5l28 -16l-96 -436zM398 -236v759l116 11l1 -759z" />
<glyph unicode="O" horiz-adv-x="645" d="M100 -44q0 -11 21 -9q21 -12 36 -12.5t29 14.5t24 34.5t21 47.5t20 53.5t21.5 53.5t24.5 46q37 53 61 107q21 49 21 100q-1 5 -1 11q-2 57 -45 87q-18 13 -34 14q-19 -1 -35 -21q-28 -36 -58.5 -116.5t-52.5 -111.5q-18 -49 3 -48q10 1 56 29q29 18 29 6q0 -5 -5 -16 q-8 -17 -4 -16q8 2 38 57q32 57 15 54q-6 -1 -19 -12q-16 -23 -11 -23q4 0 69 59q33 30 33 25q0 -4 -13 -23q-5 -30 -5 -53q0 -32 9 -53q6 -13 -1.5 -23t-58.5 -57q-9 -8 -14 -13q-173 -161 -174 -191zM133 493q14 36 47 36q8 0 16 -2q46 -10 113 -72q27 -17 31 -47 q1 -7 1 -14q-1 -24 -13 -53q-16 -37 -32 -65t-41 -63q-30 1 -30 34q0 18 9 47q22 66 60 108q21 22 29 11q6 -7 24 -7.5t41.5 6t49 8.5t46 -0.5t32.5 -22t8 -54.5q-41 -58 -131 -89q-42 -15 -77 -15q-40 0 -70 19q-68 62 -98 126q-20 42 -21 76q0 18 6 33z" />
<glyph unicode="P" horiz-adv-x="856" d="M159 160q-37 26 -37 71q0 57 61 145q14 20 51 -5t82.5 -78t90.5 -110t85 -106t56 -60l-154 -265zM345 189l82 246l3 50l134 65q31 15 64 15q25 -1 50 -9q59 -20 86 -75l-295 -349q-13 24 -57 46q-30 15 -50 15q-10 0 -17 -4z" />
<glyph unicode="Q" horiz-adv-x="928" d="M92 429q2 51 51 129q31 48 43 48q2 0 4 -2t3 -7q4 -18 27.5 -12.5t56 12.5t62 11.5t46.5 -14.5q12 -14 12 -40q0 -12 -3 -27q-26 -38 -45.5 -78.5t-30.5 -84.5q-6 -22 -6 -43q0 -20 6 -39q10 -38 44 -61q31 -13 59 -13q26 0 49 11q47 23 73 83q16 34 16 65q0 23 -9 43 q-19 50 -78 76q-42 27 -100 27q-38 0 -84 -12q-112 -31 -163 -104q-35 -6 -33 32zM308 553q-2 2 15 14q45 32 45 33q-7 3 4 -42t22.5 -93.5t5.5 -52.5l12 -32q19 -24 51.5 -31t60.5 2q50 10 56 25q2 6 -9 9l53 34q28 15 25 4q16 -33 16 -64q0 -73 -86 -135q-36 -17 -66 -17 q-60 0 -93 70q2 4 2 11q0 34 -42 132q-49 118 -72 133zM454 116q10 14 25 38t24.5 38.5t24 31.5t27.5 23t30 5t35 -14q106 -14 164 -88q46 -59 46 -141q0 -18 -2 -38q-41 -58 -130 -89q-41 -14 -76 -14q-40 0 -70 19q-66 59 -91 121q-15 35 -15 66q0 22 8 42z" />
<glyph unicode="R" horiz-adv-x="891" d="M108.5 279q-0.5 17 7 32.5t13 33.5t2.5 27l217 -448q-2 10 13 -27l58 -148l-296 503q-14 10 -14.5 27zM274 563l6 48l114 13q46 -3 95 -59t87 -142l-114 -22q-9 17 -30 49t-32 56.5t-14 54.5q2 8 -18 7q-11 -1 -41 -5q-53 -8 -53 0zM456 156l295 349l47 -44l-295 -349z " />
<glyph unicode="S" horiz-adv-x="692" d="M116 26q11 -19 19 -19q12 0 17 41q3 26 4 73q-4 18 -4 45q0 52 15 132q23 124 22 164q18 75 77 75q28 0 66 -18q14 20 16 16q1 -2 2 -7q5 -29 23 -41q11 6 11 -8q-3 -26 -44 -92q-24 -18 -24 -41q0 -17 13 -37q8 -13 27 -20t34.5 -9t49 -3t47.5 -2q76 49 97 83 q7 11 -2 11l-9 -3q-21 -7 -59.5 -36t-102.5 -83.5t-100 -82.5q-93 -76 -152 -93q-9 -3 -9 -1q-1 1 6 5q18 -15 40 -27t38 -17t31 -11t18 -10t0 -13q-11 -57 -17 -57q-4 0 -8 27q-3 31 -20.5 103t-26.5 91q-39 -11 -71 -55q-25 -35 -26 -65q0 -8 2 -15z" />
<glyph unicode="T" horiz-adv-x="768" d="M103 346l506 -36l15 -110l-506 35zM490 -156l3 753l116 12l-2 -754z" />
<glyph unicode="U" horiz-adv-x="856" d="M100 393l193 -344l131 189q32 17 78 19q13 1 25 1q29 0 51 -4q30 -5 83 -17q35 -7 51 -12t29 -13t6.5 -18.5t-30.5 -26.5l-54 -151q18 -39 24 -83q2 -14 2 -27q0 -29 -9 -58q-13 -41 -48 -58q-21 -10 -27 27q-4 23 -4 100q0 173 -25 253q-18 59 -51 94q-33 22 -123 112 q-91 88 -160 142q-45 35 -69 36q-12 0 -19 -10z" />
<glyph unicode="V" horiz-adv-x="637" d="M113 435l185 150q1 2 10 -23t22 -66t29 -90.5l32 -99t29.5 -90.5t22.5 -66q10 -28 10 -23q0 3 -58 -33q-62 -38 -125 -80l-64 -40zM120 523q0 -9 140 -219q143 -214 140 -219l134 90l-315 416q-3 -5 -49 -33q-50 -30 -50 -35z" />
<glyph unicode="W" horiz-adv-x="715" d="M94 369l271 -385q23 18 -8 7l-61 -25l-158 458zM131 614q19 15 55.5 -18t77.5 -88.5t82 -111.5t77.5 -89t54.5 -18l-219 -134l-95 463zM163 487l253 -559q-1 -3 -1 -5t1 -2q11 0 122 154l62 87l-308 419zM181 732q-1 -8 137 -220q140 -216 138 -221l122 85l-303 422 q-3 -4 -47 -32q-48 -30 -47 -34z" />
<glyph unicode="X" horiz-adv-x="768" d="M92 391q0 5 42.5 35t41.5 36l-14 -256l146 1zM299 25l123 7l221 279l-133 -7zM341 487q37 13 151.5 60t151.5 60l-41 -246l-260 -105z" />
<glyph unicode="Y" horiz-adv-x="719" d="M117 152l92 236q0 1 1 1q8 0 58 -38q58 -45 116 -89q49 -38 57 -38q1 0 1 1l-132 -260zM286 227l117 12l221 -57l-117 -11zM297 503q0 4 42.5 34t41.5 35q-9 -3 -15.5 -170.5t-14.5 -171.5q-27 -12 -33.5 -26.5t0.5 -23.5l7 -9z" />
<glyph unicode="Z" horiz-adv-x="885" d="M86 268l339 211l284 86l-339 -210zM224 -24q2 1 128 61t128 61l243 -267l-475 46zM404 236l38 398l308 -146l-31 -372z" />
<glyph unicode="[" horiz-adv-x="918" d="M121 226l248 -512l427 476l-75 105l-348 -439l-135 329l65 32l-38 79z" />
<glyph unicode="\" horiz-adv-x="487" d="M82 574l284 -756l38 65l-284 756z" />
<glyph unicode="]" horiz-adv-x="762" d="M107 282l143 70l249 -512l139 337l-1 52l-218 -375l-209 381l-65 -32z" />
<glyph unicode="_" horiz-adv-x="834" d="M107 188l268 -227l353 190l-269 227z" />
<glyph unicode="`" horiz-adv-x="354" d="M109 374l77 -78l43 -47l-55 75z" />
<glyph unicode="a" horiz-adv-x="524" d="M126 284q6 54 47 87q46 24 71 25q4 0 8 -1q26 -4 50 -54l-27 39q29 45 38 19q2 -4 3 -10q13 -35 13 -79q0 -34 -8 -74q-15 -24 -77 -48q-45 -18 -71 -17q-10 0 -17 2q-31 49 -31 97q0 7 1 14zM296 327q-2 -3 -2 -10q0 -31 42 -141q52 -134 79 -153q30 -21 12 -32 q-11 -8 -19 -2q-3 2 -2 5l-75 199q-1 -2 -9.5 31.5t-17.5 67.5z" />
<glyph unicode="b" horiz-adv-x="451" d="M92 499l195 -444l62 11l-233 466zM215 304q-4 17 -4 33q0 26 11 45q16 23 22 -21q2 -17 4 -59q4 -73 12 -73q3 0 6 4q3 -5 8 -14t16 -28t18 -31l6 -12l-13 -20q4 16 -16 30q-16 11 -38 55t-32 91z" />
<glyph unicode="c" horiz-adv-x="615" d="M113 78q-1 5 30.5 36.5t63.5 60.5l32 29q15 -5 32 -5q28 0 62 13q27 10 46 23.5t22 23.5q13 -9 44 -22.5t42 -24.5t-1 -29v-12q0 -72 -46 -130q-50 -63 -125 -67q-21 -6 -43 -6q-38 0 -76 20q-58 30 -83 90z" />
<glyph unicode="d" horiz-adv-x="561" d="M119 326q57 -133 58 -134l13 20q-4 -16 16 -30q12 -8 11 0q-1 10 -15 15q-20 8 -39 -20q-16 -23 -21 20q-1 16 -3 56q-2 79 -12 79q-4 0 -8 -6zM124 704l91 -19l220 -458l-56 -9z" />
<glyph unicode="e" horiz-adv-x="571" d="M124 234q-4 15 -5 30q0 26 12 53q25 39 73 48q13 2 26 2q34 0 65 -17l-41 9q-2 18 -8 30t-12.5 14t-12.5 -1q-4 -6 3 -26t26 -46q9 -6 11.5 -16t-1.5 -21.5t-11 -23.5t-17 -25.5t-19.5 -24.5t-19.5 -23.5t-15 -19.5q-42 18 -54 58zM170 212q2 -4 5.5 -11.5t5.5 -11.5 l5 -10t5.5 -8.5t6 -5t7.5 -2t9 2.5q1 1 4 1q18 0 101 -30q45 -16 58 -16q5 0 5 2q0 1 -1 3l76 36q13 -27 13 -55q0 -23 -9 -46q-19 -52 -68 -75q-23 -11 -44 -11q-25 0 -45 14q-40 27 -66 83z" />
<glyph unicode="f" horiz-adv-x="608" d="M126 240q7 49 47 78q-3 2 -3 4q0 10 83 13l39 1q-10 -5 -14 -11t-4.5 -16.5t0.5 -28.5q-16 -23 -66.5 -70t-57.5 -58q-25 31 -25 70q0 8 1 18zM138 260l197 -45l187 -319l-197 45z" />
<glyph unicode="g" horiz-adv-x="705" d="M123 33q3 4 24.5 17.5t40.5 27t18 18.5q8 -16 35 -22t42 2q26 -15 31 -6q4 7 -11 12q-12 -17 -29 28l-14 43q21 -55 21 -99q0 -11 -1 -22q-7 -51 -37 -78q-21 -15 -39 -15q-15 0 -28 9q-31 22 -53 85zM136 138q9 12 18.5 55t23 65t38.5 4q19 -13 58 -31.5t53.5 -31.5 t2.5 -30q-9 -13 -19 -56t-23.5 -64.5t-38.5 -3.5q-19 13 -58 31.5t-53 31.5t-2 30zM237 332q9 -6 24 -6q22 0 59 13q61 22 76 44q6 9 38 -39q59 -90 109 -200q20 -48 11 -43q-9 6 -24 6q-23 0 -59 -13q-61 -22 -76 -43q-7 -10 -40 41q-61 92 -108 199q-19 45 -10 41zM410 43 q8 -17 24.5 -23t33.5 2q17 -5 32 -5q20 0 34 9q25 15 22 41q1 2 15.5 17.5t22 27t5 29.5t-23.5 33q-10 -26 -45 -46q-27 -14 -49 -14q-7 0 -13 1q-19 18 -20.5 24t6.5 33q17 -11 18.5 -28.5t-8.5 -34.5t-21.5 -32t-22.5 -25z" />
<glyph unicode="h" horiz-adv-x="610" d="M117 221l142 278l190 -441l-141 -277zM371 239q-1 8 4 6q3 -1 8 -4q4 -3 7 -3q18 0 20 82v21q0 42 -3 87l74 -201l-7 -84q-6 -8 -14 -8q-19 0 -51 38q-35 43 -38 66z" />
<glyph unicode="i" horiz-adv-x="684" d="M117 201q4 -20 21 -29q16 -10 35 -6t28 21q10 17 6.5 36t-19.5 28q-17 10 -36.5 7t-28.5 -20q-10 -17 -6 -37zM233 180l129 -314l216 235l-129 315z" />
<glyph unicode="j" horiz-adv-x="822" d="M114 102q11 -7 60 12.5t57 31.5q0 1 1 1q12 0 107 -190q60 -122 60 -132q0 -1 -0.5 -1h-0.5q-11 7 -60 -13t-57 -32q0 -1 -1 -1q-12 0 -107 191q-60 122 -60 132q0 1 0.5 1h0.5zM507 -15q20 20 40.5 44t32 37t16.5 16q2 -1 49.5 11t52.5 4q18 -37 18 -66q0 -52 -57 -80 q-8 9 -46 17.5t-72 12.5z" />
<glyph unicode="k" horiz-adv-x="653" d="M125 420l102 79l-9 -504l-34 -68zM165 -47l42 182l308 358l-46 -184zM243 177l127 48l180 18l-132 -13z" />
<glyph unicode="l" horiz-adv-x="711" d="M117 188l191 -440l298 353l-191 441z" />
<glyph unicode="m" horiz-adv-x="563" d="M108 384.5q12 -13.5 47.5 -29t49.5 -24.5q4 32 -8.5 54t-36.5 32q-40 -19 -46 -47q-1 -6 -1 -13q0 -27 21 -71l12 191q-22 43 -22 64q0 14 10 19q7 3 6 -8q-1 -5 -23 -82q-12 -42 -7 -51q-14 -21 -2 -34.5zM213 282l58 91l129 -315l-25 -111zM323 240q-1 9 11 1 q4 -3 7 -3q18 0 20 82q1 17 1 35q0 35 -3 73l74 -201l-6 -84q-6 -9 -15 -9q-19 0 -51 40q-36 44 -38 66z" />
<glyph unicode="n" horiz-adv-x="463" d="M111 288l58 92l129 -315l-25 -111zM220 246q-1 8 4 6q3 -1 8 -4q4 -3 7 -3q18 0 20 82q1 17 1 35q0 35 -3 73l74 -200l-7 -85q-6 -8 -14 -8q-19 0 -51 38q-36 43 -39 66z" />
<glyph unicode="o" horiz-adv-x="707" d="M129.5 141q2.5 -10 12.5 -16q3 9 -1 40.5t-6.5 59.5t13.5 51t53 23q25 0 51.5 3t35.5 3.5t24 -5t27.5 -19.5t35.5 -43q25 -17 24 -25q0 7 10 21q5 19 5 37q0 25 -10 47q-16 38 -61 52q-15 5 -29 5q-28 0 -53 -20q-37 -30 -49 -77q-4 -6 -14 -18t-19 -23t-19.5 -24.5 t-17 -26t-11 -24t-2 -21.5zM222.5 64q-2.5 24 13.5 52.5t47 62.5q91 99 157 98q17 0 32 -6q22 -15 31 -7t8.5 25.5t8 26t30.5 -6.5q28 -31 31.5 -53t-10.5 -35t-32 -23.5t-33.5 -27t-15.5 -38.5q0 -54 -46 -85q-33 -22 -68 -22q-15 0 -30 4q-24 -34 -32 -37q-9 -3 -40 19 q-15 11 -23 17q-26 12 -28.5 36z" />
<glyph unicode="p" horiz-adv-x="533" d="M113 231l237 -485l57 10l-203 458zM325 304q-4 17 -4 33q0 25 11 45q16 23 21 -20q1 -16 3 -56q2 -79 12 -79q4 1 8 6q3 -5 8 -14t15.5 -27.5t16.5 -30.5l7 -12l-13 -20q4 16 -16 30q-16 11 -37.5 54.5t-31.5 90.5z" />
<glyph unicode="q" horiz-adv-x="477" d="M105 379l25 35l260 -497l-62 -13zM129 326q57 -133 58 -134l13 20q-4 -16 16 -30q12 -8 11 0q-1 10 -15 15q-20 8 -39 -20q-16 -23 -21 20q-1 16 -3 56q-2 79 -12 79q-4 0 -8 -6z" />
<glyph unicode="r" horiz-adv-x="608" d="M105 338q-2 -2 76 -176q77 -171 77 -176q0 -21 6 -24q16 -8 48 -15t45 -16q6 -4 4 13q-1 13 -37 174q-25 112 -24 157q0 20 4 27zM286 250q-3 -13 -3 -26q0 -35 19 -75l178 129q-15 30 -16.5 64.5t13.5 43.5l-142 -71q-39 -19 -49 -65z" />
<glyph unicode="s" horiz-adv-x="391" d="M115 293q8 -5 29.5 -27.5t38.5 -37t21 -8.5q4 3 9.5 7.5t8 6.5t6 5t4.5 5t2.5 4.5t0.5 4.5t-2.5 4.5t-4.5 5.5t-7 6q-15 19 -8.5 26.5t21.5 7.5h16q-29 23 -63 23h-5q-38 -2 -67 -33z" />
<glyph unicode="t" horiz-adv-x="610" d="M105 362l139 -352l121 20l-208 225zM389 111q8 -17 13 -46t6 -52t6.5 -46t14.5 -29t29 0l35 268q-4 -6 -10.5 -8t-11.5 1.5t-6 11.5q5 -4 -9 -21.5t-37 -43t-30 -35.5z" />
<glyph unicode="u" horiz-adv-x="467" d="M131 208l9 87q6 9 15 9q19 0 50 -39q36 -44 38 -66q2 -10 -12 -1q-4 3 -7 3q-18 0 -21 -78q-1 -18 -1 -36q0 -37 3 -78zM163 377l28 114l162 -334l-60 -94z" />
<glyph unicode="v" horiz-adv-x="717" d="M100 250l256 209l255 -316l-104 -80zM422 231l38 60l135 -183l-42 9z" />
<glyph unicode="w" horiz-adv-x="984" d="M92 388l277 -325l70 70l-204 356zM404 -34l17 599l59 44l48 -432zM466 436l187 -352l-48 -53l-94 408zM714 -32l16 599l65 48l47 -432z" />
<glyph unicode="x" horiz-adv-x="772" d="M127 330l127 16l11 -192l-118 -11zM273 -163l1 521l119 9l9 -516zM306 179l40 64l329 -81l-48 -70z" />
<glyph unicode="y" horiz-adv-x="787" d="M90 348l362 124q0 5 60 -63.5t118 -137.5q53 -63 53 -65h-1q-6 4 -20 4q-21 0 -59 -9q-64 -15 -100 -40zM163 361l112 13l266 -429l-26 9z" />
<glyph unicode="z" horiz-adv-x="606" d="M139 71l185 -175l-93 -45l-34 70l33 262l-33 69l73 17l-117 35zM159 507l57 -46l10 -182l-57 47zM161 39l106 101l247 -15l-106 -101z" />
<glyph unicode="{" horiz-adv-x="770" d="M125 206l20 -81q25 -23 47 -29t36 2.5t27.5 22.5t22.5 31.5t19 29.5t18.5 15.5t21.5 -9.5q-2 -1 -4 -3.5t-5 -10t-1 -16.5t14 -22t34 -27q6 3 8.5 10t2 13.5t1.5 11.5t7.5 4.5t19 -9t35.5 -26.5q-2 -1 -4 -3.5t-5 -11t-1 -17t14 -22t34 -27.5q9 -18 15 -26.5t12 -14.5 t19 -7.5t25.5 -2.5t42.5 -3t60 -6l-15 22q-12 24 39 -7l3 -2l-47 55q-33 43 -8 32q6 -3 17 -9l-45 12q-26 4 6 -17q5 -4 12 -8q-17 -8 -69 19q-12 6 -12 7q0 3 23 -6q-24 50 -79 109q-52 55 -50 23q0 -5 2 -12q20 10 17 35t-17 49.5t-19 47t11 25.5q-2 4 -7.5 12t-10.5 15.5 t-9.5 16.5t-5 14.5t3.5 8.5t16.5 1t33.5 -10l-15 22q-12 24 39 -7q1 -1 3 -2l-31 89l-47 1q-45 10 -86.5 -15t-70.5 -69t-52 -90t-40.5 -84t-25.5 -44z" />
<glyph unicode="|" horiz-adv-x="684" d="M117 269l229 380l223 -511l-229 -380z" />
<glyph unicode="}" horiz-adv-x="578" d="M86 477l47 -2q45 -10 66 -34.5t24 -58t1.5 -68.5t6 -75.5t30.5 -69.5l19 -80q-25 11 -25.5 31t16.5 43t39.5 50t44 52.5t30.5 49.5t-1 41l50 -66q27 -41 1 -23q-5 3 -12 9q-9 -4 -11 -18.5t-1.5 -25.5t-7.5 -17t-29 6l50 -66q28 -41 2 -23q-5 3 -12 9q15 -30 23.5 -59.5 t10 -61.5t-22.5 -47t-72 -6l14 -26q8 -23 -32 7l-8 6q35 21 -38 79l40 -15q32 -8 -14 28q6 4 18.5 2.5t22.5 -1t15 3.5t-3 16t-32 36q-13 26 -14 52.5t2.5 51t-3.5 70.5q-30 -15 -36 -12q-3 2 -22 32q-24 40 -62 84q-3 6 -1 5q5 -1 3 -6q-4 -9 -60 20l14 -26q8 -23 -32 7 l-8 6z" />
<glyph unicode="&#xa8;" horiz-adv-x="364" d="M133 231q5 -14 18 -17q15 -4 28.5 2t18.5 21q13 39 -16 47q-15 3 -29 -2.5t-19 -20.5q-6 -16 -1 -30zM160 331q5 -14 18 -17q15 -4 28.5 2t18.5 21q13 39 -16 47q-15 3 -29 -2.5t-19 -20.5q-6 -16 -1 -30z" />
<glyph unicode="&#xad;" d="M109 210l170 -171l241 140l-171 170z" />
<glyph unicode="&#xb4;" horiz-adv-x="469" d="M121 331l123 14l94 -60l-100 -17z" />
<glyph unicode="&#x2c6;" horiz-adv-x="442" d="M129 237l181 71l-10 -79l-152 -59z" />
<glyph unicode="&#x2000;" horiz-adv-x="682" />
<glyph unicode="&#x2001;" horiz-adv-x="1365" />
<glyph unicode="&#x2002;" horiz-adv-x="682" />
<glyph unicode="&#x2003;" horiz-adv-x="1365" />
<glyph unicode="&#x2004;" horiz-adv-x="455" />
<glyph unicode="&#x2005;" horiz-adv-x="341" />
<glyph unicode="&#x2006;" horiz-adv-x="227" />
<glyph unicode="&#x2007;" horiz-adv-x="227" />
<glyph unicode="&#x2008;" horiz-adv-x="170" />
<glyph unicode="&#x2009;" horiz-adv-x="273" />
<glyph unicode="&#x200a;" horiz-adv-x="75" />
<glyph unicode="&#x2010;" d="M109 210l170 -171l241 140l-171 170z" />
<glyph unicode="&#x2011;" d="M109 210l170 -171l241 140l-171 170z" />
<glyph unicode="&#x2012;" d="M109 210l170 -171l241 140l-171 170z" />
<glyph unicode="&#x2013;" horiz-adv-x="436" d="M119 115l56 -52l143 258l-56 51z" />
<glyph unicode="&#x2014;" horiz-adv-x="430" d="M123 115l56 -52l151 449l-56 52z" />
<glyph unicode="&#x2018;" horiz-adv-x="387" d="M137 271q1 -1 5 -21t8.5 -47t9.5 -54.5t8.5 -46t4.5 -18.5l82 62q-1 -11 -6 7q-4 17 -16 85q-22 123 -28 123q-3 -4 -26 -25.5t-37 -39.5t-5 -25z" />
<glyph unicode="&#x2019;" horiz-adv-x="383" d="M133 237q1 11 6 -7q4 -17 16 -85q22 -123 28 -123q3 4 26 25.5t37 39.5t5 25q-1 1 -5 21t-8.5 47.5t-9.5 55t-8.5 46t-4.5 18.5z" />
<glyph unicode="&#x201c;" horiz-adv-x="399" d="M139 279q3 -2 13 -102q10 -91 12 -91l82 63q-1 -11 -6 7q-4 17 -16 85q-22 122 -28 122q-2 -3 -23 -23.5t-32 -37t-2 -23.5zM149 390q1 -1 5 -21t8.5 -47t9.5 -54.5t8.5 -46t4.5 -18.5l82 63q-1 -11 -7 7q-5 17 -21 86q-27 116 -33 115q-2 -3 -23 -23.5t-32 -37t-2 -23.5 z" />
<glyph unicode="&#x201d;" horiz-adv-x="401" d="M129 231q1 11 7 -7q5 -17 21 -87q27 -115 33 -115q2 3 23 23.5t32 37t2 23.5q-1 1 -5 21t-8.5 47.5t-9.5 55t-8.5 46t-4.5 18.5zM150 348q1 11 6 -7q4 -17 16 -85q22 -123 28 -123q2 3 23 23.5t32 37t2 23.5q-3 2 -13 102q-10 91 -12 91z" />
<glyph unicode="&#x2026;" horiz-adv-x="342" />
<glyph unicode="&#x202f;" horiz-adv-x="273" />
<glyph unicode="&#x205f;" horiz-adv-x="341" />
<glyph unicode="&#x25fc;" horiz-adv-x="369" d="M0 0v369h369v-369h-369z" />
</font>
</defs>
</svg>
