<?xml version="1.0" standalone="no"?>
<!DOCTYPE svg PUBLIC "-//W3C//DTD SVG 1.1//EN" "http://www.w3.org/Graphics/SVG/1.1/DTD/svg11.dtd" >
<svg xmlns="http://www.w3.org/2000/svg" xmlns:xlink="http://www.w3.org/1999/xlink" version="1.1">
<metadata></metadata>
<defs>
<font id="reglobold" horiz-adv-x="978" >
<font-face units-per-em="2048" ascent="1575" descent="-473" />
<missing-glyph horiz-adv-x="512" />
<glyph horiz-adv-x="0" />
<glyph horiz-adv-x="682" />
<glyph unicode=" "  horiz-adv-x="512" />
<glyph unicode="&#x09;" horiz-adv-x="512" />
<glyph unicode="&#xa0;" horiz-adv-x="512" />
<glyph unicode="!" horiz-adv-x="626" d="M123 170q0 -65 57 -117.5t133 -52.5q78 0 134.5 56t56.5 134t-56.5 133.5t-134.5 55.5q-80 0 -135 -58.5t-55 -150.5zM180 473h266v1102h-266v-1102z" />
<glyph unicode="&#x22;" horiz-adv-x="927" d="M123 989h287v529h-285zM518 989h287v529h-285z" />
<glyph unicode="#" horiz-adv-x="1236" d="M164 449h909v241h-909v-241zM164 827h909v242h-909v-242zM182 0h267l200 1518h-266zM588 0h266l201 1518h-267z" />
<glyph unicode="$" horiz-adv-x="1073" d="M82 434h223q3 -74 76.5 -131t153.5 -57q75 0 125.5 51t50.5 119q0 38 -23.5 70t-67.5 58.5t-89.5 48t-108.5 50.5t-105 53q-97 54 -156 152.5t-59 230.5q0 189 123.5 314t309.5 125q189 0 312.5 -124t123.5 -313h-223q-4 77 -69 134t-144 57q-78 0 -126.5 -48.5 t-48.5 -125.5q0 -33 19.5 -62t60 -55.5t77 -45.5t97.5 -48t95 -47q262 -145 262 -406q0 -186 -123.5 -310t-312.5 -124q-188 0 -320.5 124.5t-132.5 309.5zM426 109h209v-271h-209v271zM426 1413v270h209v-270h-209z" />
<glyph unicode="%" horiz-adv-x="1232" d="M0 1235q0 -78 55.5 -134.5t134.5 -56.5q78 0 134.5 56.5t56.5 134.5t-56.5 133t-134.5 55q-79 0 -134.5 -55t-55.5 -133zM41 0h264l873 1577h-265zM852 399q0 -78 55.5 -134t134.5 -56q78 0 134.5 56t56.5 134t-56.5 133.5t-134.5 55.5q-79 0 -134.5 -55.5t-55.5 -133.5z " />
<glyph unicode="&#x26;" horiz-adv-x="1318" d="M102 457q0 182 117 305q-117 130 -117 307q0 190 134 324.5t323 134.5q125 0 230.5 -61.5t167 -167t61.5 -230.5h-287q0 74 -49 132.5t-123 58.5q-83 0 -136.5 -54t-53.5 -137q0 -71 55 -120.5t121 -51.5h117v-266h-115q-66 0 -122 -51t-56 -123q0 -82 53 -135.5 t137 -53.5q78 0 134.5 58.5t56.5 130.5h268q0 -189 -134.5 -323t-324.5 -134q-189 0 -323 134t-134 323zM662 631v266h555v-266h-555zM750 457v213h268v-213h-268zM750 459h268q0 -76 57.5 -133.5t134.5 -57.5v-268q-126 0 -232 61.5t-167 167t-61 230.5z" />
<glyph unicode="'" horiz-adv-x="532" d="M123 989h287v529h-285z" />
<glyph unicode="(" horiz-adv-x="897" d="M205 303q0 -164 116.5 -280.5t280.5 -116.5h90v266h-90q-57 0 -95 37t-38 94v940q0 54 40.5 92.5t92.5 38.5h90v266h-90q-164 0 -280.5 -116.5t-116.5 -280.5v-940z" />
<glyph unicode=")" horiz-adv-x="897" d="M205 -94h88q166 0 282.5 116.5t116.5 280.5v940q0 164 -116.5 280.5t-282.5 116.5h-88v-266h88q53 0 93 -38t40 -93v-940q0 -56 -38 -93.5t-95 -37.5h-88v-266z" />
<glyph unicode="*" horiz-adv-x="964" d="M123 1075l104 -178l228 154l-56 32l-20 -274l207 -2l-23 276l-53 -32l229 -154l103 180l-248 119v-63l248 118l-103 181l-229 -158l55 -31l19 277l-205 -2l20 -275l56 33l-230 154l-102 -177l250 -123l-2 64z" />
<glyph unicode="+" horiz-adv-x="1306" d="M184 481h938v264h-938v-264zM520 143h266v938h-266v-938z" />
<glyph unicode="," horiz-adv-x="573" d="M41 -150h260l191 529h-299z" />
<glyph unicode="-" horiz-adv-x="937" d="M102 475h734v264h-734v-264z" />
<glyph unicode="." horiz-adv-x="544" d="M82 190q0 -78 55.5 -134t134.5 -56q78 0 134.5 56t56.5 134t-56.5 133.5t-134.5 55.5q-79 0 -134.5 -55.5t-55.5 -133.5z" />
<glyph unicode="/" horiz-adv-x="993" d="M102 0h265l606 1518h-264z" />
<glyph unicode="0" horiz-adv-x="1114" d="M102 444v625h265v-625q1 -87 55 -137.5t133 -50.5q77 0 135 57t58 131h264q0 -186 -134 -319t-323 -133q-186 0 -319.5 133t-133.5 319zM102 1069q0 190 133.5 324.5t319.5 134.5q189 0 323 -134.5t134 -324.5h-264q-2 78 -59 135.5t-134 57.5q-76 0 -132 -58t-56 -135 h-265zM172 246l528 1040h228l-529 -1040h-227zM748 444v625h264v-625h-264z" />
<glyph unicode="1" horiz-adv-x="1114" d="M102 0h910v266h-322v1252h-588v-267h322v-985h-322v-266z" />
<glyph unicode="2" horiz-adv-x="1120" d="M102 0h916v268h-625q0 57 27 111.5t69.5 95.5t79 68t70.5 45q14 7 49.5 24.5t60 30t61.5 36.5t63 47t55.5 59.5t47.5 75.5t30 93t12 115q0 190 -134 324.5t-323 134.5q-125 0 -230.5 -61.5t-167 -167t-61.5 -230.5h267q0 76 57.5 133.5t134.5 57.5q75 0 133 -57.5 t58 -133.5q0 -158 -191 -248q-233 -108 -346 -266.5t-113 -343.5v-211z" />
<glyph unicode="3" horiz-adv-x="1120" d="M102 449q0 -189 134.5 -323t324.5 -134q189 0 323 134t134 323q0 182 -117 305q117 130 117 307q0 190 -134 324.5t-323 134.5q-125 0 -230.5 -61.5t-167 -167t-61.5 -230.5h287q0 74 49 132t123 58q83 0 137 -53.5t54 -136.5q0 -71 -55.5 -120.5t-123.5 -51.5h-114v-266 h114q66 0 122.5 -51t56.5 -123q0 -82 -53.5 -135.5t-137.5 -53.5q-78 0 -135 58.5t-57 130.5h-267z" />
<glyph unicode="4" horiz-adv-x="1185" d="M102 455v262l545 801h266l-702 -1063h-109zM154 455v247h929v-247h-929zM647 0v1518h266v-1518h-266z" />
<glyph unicode="5" horiz-adv-x="1114" d="M102 455q0 -189 133 -322t322 -133t322 133t133 322q0 190 -133 323t-322 133h-190v340h587v267h-852v-873h455q75 0 133 -57t58 -133q0 -75 -57 -132t-134 -57q-79 0 -134.5 55.5t-55.5 133.5h-265z" />
<glyph unicode="6" horiz-adv-x="1120" d="M102 449q0 -189 134.5 -323t324.5 -134q189 0 323 134t134 323q0 190 -134 324t-323 134q-63 0 -192 -37v191q0 76 57.5 133t134.5 57q75 0 133 -57t58 -133h266q0 190 -134 324.5t-323 134.5q-125 0 -230.5 -61.5t-167 -167t-61.5 -230.5v-612zM369 449q0 81 58 136.5 t134 55.5q75 0 133 -58t58 -134q0 -75 -57.5 -132t-133.5 -57q-81 0 -136.5 55t-55.5 134z" />
<glyph unicode="7" horiz-adv-x="1097" d="M102 0l588 1251h305l-587 -1251h-306zM102 1251v267h893v-267h-893z" />
<glyph unicode="8" horiz-adv-x="1120" d="M102 449q0 -189 134.5 -323t324.5 -134q189 0 323 134t134 323q0 182 -117 305q117 130 117 307q0 189 -134 324t-323 135q-190 0 -324.5 -135t-134.5 -324q0 -176 115 -307q-115 -125 -115 -305zM369 449q0 79 57.5 135.5t134.5 56.5t134 -58t57 -134q0 -75 -57.5 -132 t-133.5 -57q-79 0 -135.5 55.5t-56.5 133.5zM369 1061q0 76 57.5 132t134.5 56q75 0 133 -56.5t58 -131.5q0 -77 -57 -134t-134 -57q-79 0 -135.5 56.5t-56.5 134.5z" />
<glyph unicode="9" horiz-adv-x="1120" d="M102 451q0 -190 134 -324.5t323 -134.5q125 0 230.5 61.5t167 167t61.5 230.5v610q0 125 -61.5 230.5t-167 167t-230.5 61.5q-189 0 -323 -134.5t-134 -324.5t134 -324.5t323 -134.5q21 0 42.5 2.5t44.5 7.5t36.5 8.5t39 11t30.5 9.5v-190q0 -77 -58 -134t-135 -57 q-75 0 -132.5 57.5t-57.5 133.5h-267zM369 1061q0 77 56.5 133.5t133.5 56.5q82 0 137.5 -55t55.5 -135t-58.5 -135.5t-134.5 -55.5q-75 0 -132.5 57.5t-57.5 133.5z" />
<glyph unicode=":" horiz-adv-x="544" d="M82 190q0 -78 56 -134t134 -56q79 0 135 56t56 134t-56 133.5t-135 55.5q-78 0 -134 -55.5t-56 -133.5zM82 702q0 -78 56 -134t134 -56q79 0 135 56t56 134t-56 133.5t-135 55.5q-78 0 -134 -55.5t-56 -133.5z" />
<glyph unicode=";" horiz-adv-x="571" d="M41 -150h260l191 529h-299zM139 702q0 -78 55.5 -134t133.5 -56q79 0 134.5 56t55.5 134t-55.5 133.5t-134.5 55.5q-78 0 -133.5 -55.5t-55.5 -133.5z" />
<glyph unicode="&#x3c;" horiz-adv-x="1099" d="M154 471l792 -371v297l-651 297v-108l651 297v301l-792 -375v-338z" />
<glyph unicode="=" horiz-adv-x="1306" d="M184 266h938v266h-938v-266zM184 684h938v264h-938v-264z" />
<glyph unicode="&#x3e;" horiz-adv-x="1099" d="M154 100l792 371v338l-792 375v-301l651 -297v108l-651 -297v-297z" />
<glyph unicode="?" horiz-adv-x="1216" d="M123 1042h287q0 81 59 140t139 59q79 0 139 -59t60 -140t-59.5 -140.5t-139.5 -59.5h-239v-406h239v121q131 0 243 65t177.5 176.5t65.5 243.5q0 131 -65.5 243t-177.5 177.5t-243 65.5q-132 0 -243.5 -65.5t-176.5 -177.5t-65 -243zM303 190q0 -78 56 -134t133 -56 q78 0 134 56t56 134t-56 133.5t-134 55.5q-77 0 -133 -55.5t-56 -133.5z" />
<glyph unicode="@" horiz-adv-x="1304" d="M102 276v637h265v-637h-265zM102 276h267q0 -113 84.5 -188.5t199.5 -75.5q93 0 171 35t114 98l229 -106q-49 -115 -194.5 -204t-319.5 -89q-128 0 -233 40.5t-174 112t-106.5 168.5t-37.5 209zM102 903q0 130 76 239.5t202.5 171.5t272.5 62q239 0 394 -135.5 t155 -337.5h-264q0 89 -82.5 149t-202.5 60q-115 0 -199.5 -60.5t-84.5 -148.5h-267zM426 539q0 172 111.5 262t314.5 90h332v-223h-258h-38.5t-41.5 -2t-45 -6t-39 -12t-35 -19.5t-21.5 -30t-9.5 -41.5q0 -49 29.5 -75.5t79.5 -26.5q55 0 94 38t39 115h113 q4 -178 -89 -287.5t-214 -109.5q-143 0 -232.5 88t-89.5 240zM938 221v692h264v-692h-264z" />
<glyph unicode="A" horiz-adv-x="1142" d="M20 0h267l370 1518h-266zM328 379h465v246h-465v-246zM485 1518l371 -1518h266l-370 1518h-267z" />
<glyph unicode="B" horiz-adv-x="1114" d="M133 0v1518h264v-1518h-264zM152 0v266h434q77 0 133.5 56.5t56.5 132.5h266q0 -123 -61 -228t-166 -166t-229 -61h-434zM152 645v227h434q77 0 133.5 56.5t56.5 132.5h266q0 -121 -61.5 -217t-165 -147.5t-229.5 -51.5h-434zM152 645v227h434q193 0 324.5 -116 t131.5 -301h-266q0 77 -56 133.5t-134 56.5h-434zM152 1251v267h434q189 0 322.5 -134t133.5 -323h-266q0 78 -56 134t-134 56h-434z" />
<glyph unicode="C" horiz-adv-x="1093" d="M92 444v625h264v-625h-264zM92 444h264q1 -87 55.5 -137.5t133.5 -50.5q78 1 134 57t56 131h266q0 -186 -133.5 -319t-322.5 -133q-186 0 -319.5 133t-133.5 319zM92 1069q0 190 133.5 324.5t319.5 134.5q189 0 322.5 -134.5t133.5 -324.5h-266q-2 78 -58 135.5 t-132 57.5q-76 -1 -132.5 -58.5t-56.5 -134.5h-264zM735 444v154h266v-154h-266zM735 920v149h266v-149h-266z" />
<glyph unicode="D" horiz-adv-x="1134" d="M133 0v1518h266v-1518h-266zM152 0v266h434q78 2 135 57.5t57 131.5h264q0 -123 -61 -228t-166 -166t-229 -61h-434zM152 1251v267h434q189 0 322.5 -134t133.5 -323h-264q-1 79 -57.5 134.5t-134.5 55.5h-434zM778 455v606h264v-606h-264z" />
<glyph unicode="E" horiz-adv-x="1011" d="M133 0v1518h264v-1518h-264zM152 0v266h757v-266h-757zM152 627v264h757v-264h-757zM152 1251v267h757v-267h-757z" />
<glyph unicode="F" horiz-adv-x="1011" d="M133 0v1518h264v-1518h-264zM152 627v264h757v-264h-757zM152 1251v267h757v-267h-757z" />
<glyph unicode="G" horiz-adv-x="1095" d="M92 455v606h264v-606h-264zM92 455h264q1 -76 58.5 -132.5t132.5 -56.5q79 1 135.5 56.5t56.5 132.5h265q0 -92 -36.5 -176t-97.5 -145.5t-145.5 -97.5t-177.5 -36q-187 0 -321 134t-134 321zM92 1061q0 93 36 177.5t97.5 145.5t145.5 97.5t176 36.5q189 0 323 -134 t134 -323h-265q-1 78 -58 133t-134 55t-134 -57t-57 -131h-264zM547 608v266h303v-266h-303zM739 455v419h265v-419h-265z" />
<glyph unicode="H" horiz-adv-x="1175" d="M133 0v1518h264v-1518h-264zM152 627v264h872v-264h-872zM778 0v1518h264v-1518h-264z" />
<glyph unicode="I" horiz-adv-x="548" d="M141 0v1518h267v-1518h-267z" />
<glyph unicode="J" horiz-adv-x="1079" d="M68 444q0 -186 134 -319t324 -133q186 0 319.5 133t133.5 319v1074h-266v-1074q-1 -88 -55 -138t-132 -50q-78 2 -135 57.5t-57 130.5h-266zM68 444h266v154h-266v-154z" />
<glyph unicode="K" horiz-adv-x="1138" d="M133 0v1518h266v-1518h-266zM262 709l533 809h303l-518 -779l-64 -39l-248 -401zM449 688l159 287l490 -975h-303z" />
<glyph unicode="L" d="M133 0v1518h266v-1518h-266zM133 0v266h778v-266h-778z" />
<glyph unicode="M" horiz-adv-x="1368" d="M133 0v1518h266v-1518h-266zM268 1518h209l303 -1035h-245zM592 483l321 1035h191l-266 -1035h-246zM969 0v1518h266v-1518h-266z" />
<glyph unicode="N" horiz-adv-x="1175" d="M133 0v1518h264v-1518h-264zM135 1518h264l641 -1518h-264zM778 0v1518h264v-1518h-264z" />
<glyph unicode="O" horiz-adv-x="1093" d="M92 444v625h264v-625q1 -87 55.5 -137.5t133.5 -50.5q78 2 135 57.5t57 130.5h264q0 -186 -133.5 -319t-322.5 -133q-186 0 -319.5 133t-133.5 319zM92 1069q0 190 133.5 324.5t319.5 134.5q189 0 322.5 -134.5t133.5 -324.5h-264q-2 78 -59 135.5t-133 57.5 q-76 -1 -132.5 -58.5t-56.5 -134.5h-264zM737 444v625h264v-625h-264z" />
<glyph unicode="P" horiz-adv-x="1105" d="M133 0v1251h266v-1251h-266zM133 551v264h455q78 1 134 57.5t56 131.5h266q0 -122 -61 -226.5t-166 -165.5t-229 -61h-455zM133 1251v267h455q189 0 322.5 -134t133.5 -323h-266q-2 79 -57 134.5t-133 55.5h-455zM778 1004v57h266v-57h-266z" />
<glyph unicode="Q" horiz-adv-x="1093" d="M92 444v625h264v-625q1 -87 55.5 -137.5t133.5 -50.5q78 2 135 57.5t57 130.5h264q0 -186 -133.5 -319t-322.5 -133q-186 0 -319.5 133t-133.5 319zM92 1069q0 190 133.5 324.5t319.5 134.5q189 0 322.5 -134.5t133.5 -324.5h-264q-2 78 -59 135.5t-133 57.5 q-76 -1 -132.5 -58.5t-56.5 -134.5h-264zM545 -4v260q173 0 296.5 -122.5t123.5 -295.5h-260q-1 73 -45 115.5t-115 42.5zM737 444v625h264v-625h-264z" />
<glyph unicode="R" horiz-adv-x="1136" d="M133 0v1518h266v-1518h-266zM152 551v264h434q78 1 135 57.5t57 131.5h266q0 -122 -61 -226.5t-166.5 -165.5t-230.5 -61h-434zM152 1251v267h434q190 0 324 -134t134 -323h-266q-1 79 -57.5 134.5t-134.5 55.5h-434zM393 813h305l357 -813h-305zM778 1004v57h266v-57 h-266z" />
<glyph unicode="S" horiz-adv-x="1073" d="M82 455h264q3 -77 58 -133t131 -56q77 0 126.5 42t49.5 108q0 38 -23.5 70t-67.5 58.5t-89.5 48t-108.5 50.5t-105 53q-101 57 -168 155.5t-67 227.5q0 187 132.5 313t320.5 126q189 0 322.5 -134t133.5 -323h-264q-5 79 -60 134.5t-132 55.5q-80 0 -127.5 -39 t-47.5 -114q0 -33 19.5 -62t60 -55.5t77 -45.5t97.5 -48t95 -47q282 -156 282 -406q0 -91 -36 -172t-97.5 -138.5t-145.5 -90.5t-177 -33q-186 0 -319.5 134t-133.5 321z" />
<glyph unicode="T" horiz-adv-x="991" d="M41 1251v267h909v-267h-909zM362 0v1499h267v-1499h-267z" />
<glyph unicode="U" horiz-adv-x="1155" d="M123 444v1074h264v-1074q1 -87 55 -137.5t133 -50.5q78 2 135.5 57.5t57.5 130.5h264q0 -186 -134 -319t-323 -133q-186 0 -319 133t-133 319zM768 444v1074h264v-1074h-264z" />
<glyph unicode="V" horiz-adv-x="1011" d="M41 1518l285 -1518h266l-285 1518h-266zM420 0h266l285 1518h-266z" />
<glyph unicode="W" horiz-adv-x="1515" d="M37 1518l285 -1518h245l-264 1518h-266zM379 0h227l266 1518h-247zM643 1518l266 -1518h228l-246 1518h-248zM948 0h246l285 1518h-267z" />
<glyph unicode="X" horiz-adv-x="1064" d="M37 0l362 797h267l-344 -797h-285zM37 1518h285l344 -758h-267zM399 760l344 758h285l-362 -758h-267zM399 797h267l362 -797h-285z" />
<glyph unicode="Y" horiz-adv-x="1028" d="M20 1518h285l340 -910h-266zM379 0v748h266v-748h-266zM379 608l344 910h285l-363 -910h-266z" />
<glyph unicode="Z" d="M82 0v266h815v-266h-815zM82 266l530 985h285l-530 -985h-285zM82 1251v267h815v-267h-815z" />
<glyph unicode="\" horiz-adv-x="1228" d="M256 1518l606 -1518h264l-606 1518h-264z" />
<glyph unicode="^" horiz-adv-x="1329" d="M123 725h297l297 651h-109l297 -651h301l-375 793h-337z" />
<glyph unicode="_" horiz-adv-x="1126" d="M0 -125v-203h1126v203h-1126z" />
<glyph unicode="`" horiz-adv-x="1032" d="M301 1556h285l125 -313h-246z" />
<glyph unicode="a" d="M61 319q0 171 111.5 261t314.5 90h371v-221h-297q-31 0 -46 -0.5t-48 -3t-51.5 -9.5t-40.5 -18.5t-32.5 -32t-10.5 -47.5q0 -49 29 -77t79 -28q67 0 118.5 44.5t51.5 111.5h115v-12q0 -83 -27 -155q-29 -77 -78 -126t-111 -76.5t-126 -27.5q-144 0 -233 87.5t-89 239.5z M80 760q0 178 109 287.5t288 109.5q180 0 290 -109t110 -288h-267q0 59 -36.5 95t-96.5 36q-59 0 -95 -36.5t-36 -94.5h-266zM610 0v768h267v-768h-267z" />
<glyph unicode="b" horiz-adv-x="1021" d="M123 0h266v1575h-266v-1575zM274 389v-12q0 -173 85 -277q88 -108 219 -108q146 0 246 110q96 105 96 273v14h-267q0 -55 -39 -94t-92 -39q-56 0 -94.5 39t-38.5 94h-115zM274 760h115q0 55 38.5 93t94.5 38q53 0 92 -38t39 -93h267v14q0 170 -96 274q-100 110 -246 109 q-131 0 -219 -108q-85 -104 -85 -277v-12zM653 389h267v371h-267v-371z" />
<glyph unicode="c" horiz-adv-x="980" d="M102 379v389h267v-389h-267zM102 389h267q0 -55 38.5 -94t94.5 -39t93.5 38.5t37.5 94.5h266q0 -164 -116.5 -280.5t-280.5 -116.5q-166 0 -283 116.5t-117 280.5zM102 760q0 164 117 280.5t283 116.5q164 0 280.5 -116.5t116.5 -280.5h-266q0 56 -37.5 93.5t-93.5 37.5 q-55 0 -94 -38t-39 -93h-267zM633 389v41h266v-41h-266zM633 719v41h266v-41h-266z" />
<glyph unicode="d" horiz-adv-x="1040" d="M102 389v371h267v-371h-267zM102 389h267q0 -55 42.5 -94t98.5 -39q58 0 100.5 39t42.5 94h113v-15q0 -170 -88 -274q-92 -108 -223 -108q-147 0 -252 110q-101 106 -101 274v13zM102 760v12q0 170 110 276q114 110 280 109q132 -1 224 -109q89 -104 89 -273v-15h-152 q0 55 -42.5 93t-100.5 38q-56 0 -98.5 -38t-42.5 -93h-267zM653 0v1575h265v-1575h-265z" />
<glyph unicode="e" horiz-adv-x="1001" d="M102 389h267q0 -67 37.5 -104t95.5 -37q60 0 100.5 37.5t40.5 103.5h256q0 -163 -122.5 -280t-287.5 -117q-118 0 -207 54t-134.5 143.5t-45.5 199.5zM102 389v371h267v-371h-267zM102 760q0 164 117 280.5t283 116.5q164 0 280.5 -116.5t116.5 -280.5h-256 q0 66 -41.5 105.5t-99.5 39.5q-56 0 -94.5 -39t-38.5 -106h-267zM141 496v221h758v-221h-758zM643 696v64h256v-64h-256z" />
<glyph unicode="f" horiz-adv-x="686" d="M51 909v240h608v-240h-608zM166 0v1176h266v-1176h-266zM166 1176q0 166 116.5 282.5t280.5 116.5v-266q-53 0 -92 -39t-39 -94h-266zM563 1309v266h133v-266h-133z" />
<glyph unicode="g" horiz-adv-x="1021" d="M102 -76h267q0 -56 38 -94.5t93 -38.5q56 0 94.5 38t38.5 95h266q0 -164 -116.5 -280.5t-282.5 -116.5q-164 0 -281 116.5t-117 280.5zM102 389v379h267v-379h-267zM102 399h267q0 -55 39 -94t92 -39q56 0 94.5 39t38.5 94h115v-7q0 -88 -25 -162q-26 -76 -71.5 -125.5 t-104.5 -77t-123 -27.5q-155 0 -241 107q-81 101 -81 272v20zM102 760v14q0 168 96 274q100 109 246 109q131 0 219 -108q85 -104 85 -277v-12h-115q0 55 -38.5 93t-94.5 38q-53 0 -92 -38t-39 -93h-267zM633 -76v1223h266v-1223h-266z" />
<glyph unicode="h" horiz-adv-x="1040" d="M123 0h264v1575h-264v-1575zM274 760h113q0 54 43.5 92.5t99.5 38.5q60 0 101 -38t41 -93h266v13q0 167 -100 273q-104 110 -250 111q-134 -1 -226 -109q-88 -104 -88 -273v-15zM672 0h266v760h-266v-760z" />
<glyph unicode="i" horiz-adv-x="509" d="M92 1411q0 -66 47.5 -113t114.5 -47q68 0 116 47t48 113q0 67 -48 115.5t-116 48.5q-67 0 -114.5 -48t-47.5 -116zM121 0h266v1147h-266v-1147z" />
<glyph unicode="j" horiz-adv-x="516" d="M0 -209q56 0 94.5 38t38.5 95h266q0 -164 -116.5 -280.5t-282.5 -116.5v264zM98 1411q0 -66 47.5 -113t114.5 -47q66 0 115 47t49 113q0 67 -49 115.5t-115 48.5q-67 0 -114.5 -48t-47.5 -116zM133 -76v1223h266v-1223h-266z" />
<glyph unicode="k" horiz-adv-x="944" d="M123 0v1575h264v-1575h-264zM332 590l295 557h297l-308 -557h-284zM332 647h284l304 -647h-299z" />
<glyph unicode="l" horiz-adv-x="512" d="M123 0h266v1575h-266v-1575z" />
<glyph unicode="m" horiz-adv-x="1591" d="M123 0h266v1149h-266v-1149zM274 760h115q0 54 43 92.5t98 38.5q60 0 102 -38t42 -93h266v10q0 170 -101 277q-104 110 -251 110q-132 -1 -224 -109q-90 -105 -90 -277v-11zM674 0h266v760h-266v-760zM750 760h190q0 54 43 92.5t98 38.5q60 0 101 -38t41 -93h266v13 q0 169 -103 275q-107 110 -266 109q-65 0 -130.5 -27.5t-119.5 -76.5t-88 -126q-32 -73 -32 -157v-10zM1223 0h266v760h-266v-760z" />
<glyph unicode="n" horiz-adv-x="1040" d="M121 0h266v1147h-266v-1147zM274 760h113q0 54 43.5 92.5t99.5 38.5q60 0 101 -38t41 -93h266q0 177 -102.5 287t-247.5 110q-134 -1 -226 -109q-88 -104 -88 -273v-15zM672 0h266v760h-266v-760z" />
<glyph unicode="o" horiz-adv-x="1001" d="M102 397h265q0 -55 38.5 -94t94.5 -39q57 0 95 38.5t38 94.5h264q0 -166 -116.5 -282.5t-280.5 -116.5t-281 117t-117 282zM102 397v361h265v-361h-265zM102 758q0 164 117 280.5t281 116.5t280.5 -116.5t116.5 -280.5h-264q0 55 -38.5 93t-94.5 38q-53 0 -93 -38 t-40 -93h-265zM635 397v361h264v-361h-264z" />
<glyph unicode="p" horiz-adv-x="1021" d="M123 -473h266v1622h-266v-1622zM274 391v-12q0 -175 85 -279q88 -108 219 -108q146 0 246 110q96 106 96 275v14h-267q0 -55 -39 -94t-92 -39q-56 0 -94.5 39t-38.5 94h-115zM274 760h115q0 55 38.5 93t94.5 38q53 0 92 -38t39 -93h267v14q0 168 -96 274 q-100 109 -246 109q-131 0 -219 -108q-85 -104 -85 -277v-12zM653 391h267v369h-267v-369z" />
<glyph unicode="q" horiz-adv-x="1021" d="M102 389v371h267v-371h-267zM102 389h267q0 -55 39 -94t92 -39q56 0 94.5 39t38.5 94h115v-12q0 -173 -85 -277q-88 -108 -219 -108q-146 0 -246 110q-96 105 -96 273v14zM102 760v14q0 168 96 274q100 109 246 109q131 0 219 -108q85 -104 85 -277v-12h-115 q0 55 -38.5 93t-94.5 38q-53 0 -92 -38t-39 -93h-267zM633 -473v1620h266v-1620h-266z" />
<glyph unicode="r" horiz-adv-x="700" d="M123 0h266v1147h-266v-1147zM274 750l115 -58q0 61 35.5 106.5t79.5 65t84 19.5v264q-134 -1 -226 -109q-89 -104 -88 -273v-15zM588 883h112v264h-112v-264z" />
<glyph unicode="s" horiz-adv-x="876" d="M72 352q0 -158 101 -255t267 -97v248q-49 0 -75.5 29.5t-26.5 74.5h-266zM72 352h266v27h-266v-27zM72 803q0 -107 53.5 -178t136.5 -107q152 -69 210 -107t58 -85q0 -34 -26 -56t-64 -22v-248q164 0 264.5 97t100.5 257q0 56 -16 104t-38 79.5t-56 60t-57.5 42.5 t-55.5 30q-26 13 -63 31t-57.5 28t-45.5 24t-37.5 24.5t-21.5 24.5t-9 29q0 34 28 57t62 23v246q-151 0 -258.5 -104t-107.5 -250zM438 911q48 0 74.5 -29.5t26.5 -74.5h266q0 145 -108 247.5t-259 102.5v-246zM539 778h266v29h-266v-29z" />
<glyph unicode="t" horiz-adv-x="696" d="M20 909h607v240h-607v-240zM133 342q0 -162 97.5 -252t263.5 -90l38 266q-53 0 -93 39t-40 94zM133 342l266 57v1045h-266v-1102zM494 0h172v266h-134z" />
<glyph unicode="u" horiz-adv-x="1040" d="M102 389h267v758h-267v-758zM102 389v-6q0 -87 28 -159q28 -76 77 -126t113 -78t135 -28q131 0 223 108q88 104 88 274v15h-113q0 -55 -43.5 -94t-99.5 -39q-59 0 -100 39t-41 94h-267zM653 0h265v1147h-265v-1147z" />
<glyph unicode="v" horiz-adv-x="856" d="M10 1147h266l246 -1147h-246zM334 0l264 1147h248l-266 -1147h-246z" />
<glyph unicode="w" horiz-adv-x="1499" d="M10 1147h266l265 -1147h-265zM332 0l266 1147h246l-264 -1147h-248zM655 1147h246l266 -1147h-247zM958 0l265 1147h266l-266 -1147h-265z" />
<glyph unicode="x" horiz-adv-x="894" d="M0 0l305 625h264l-270 -625h-299zM0 1147h299l276 -580h-266zM319 567l277 580h299l-309 -580h-267zM326 625h264l305 -625h-299z" />
<glyph unicode="y" horiz-adv-x="894" d="M0 1147h266l303 -1147h-245zM211 -471l403 1618h260l-415 -1618h-248z" />
<glyph unicode="z" horiz-adv-x="878" d="M61 0v238l439 673l2 236h315v-236l-440 -673v-238h-316zM61 891v256h502v-256h-502zM315 0v256h502v-256h-502z" />
<glyph unicode="{" d="M131 717h205v217h-205v-217zM281 285h264v270v-1v-1v-1v-1v-1v1v1v1v1v1v1v1v1v1v1v1v1v1v1v1v1v9q0 57 -15 102t-36 69t-42 40t-36 20l-15 5q6 2 15.5 7t34.5 23t44 40t34.5 60.5t15.5 82.5v3v3v3v3v3v3v3v3v3v10v190h-264v-966zM283 301v2q0 -164 116.5 -280.5 t280.5 -116.5h90v266h-90q-57 0 -95 37t-38 94v2zM283 1255q0 164 116.5 281t280.5 117h90v-267q-100 11 -161.5 -20.5t-61.5 -112.5l-264 4v-2zM283 1257h264h-264zM696 711z" />
<glyph unicode="}" d="M213 -94v266h90q57 0 95 37t38 94v2l264 -4v2q0 -164 -116.5 -280.5t-280.5 -116.5h-90zM213 1386q100 11 161.5 -20.5t61.5 -112.5l264 4v-2q0 164 -116.5 281t-280.5 117h-90v-267zM436 1257h264h-264zM438 285v270v-1v-1v-1v-1v-1v1v1v1v1v1v1v1v1v1v1v1v1v1v1v1v1v9 q0 57 15 102t36 69t42 40t36 20l15 5q-6 2 -15.5 7t-34.5 23t-44 40t-34.5 60.5t-15.5 82.5v3v3v3v3v3v3v3v3v3v10v190h264v-966h-264zM647 717v217h205v-217h-205z" />
<glyph unicode="&#xa1;" horiz-adv-x="626" d="M123 987q0 -92 55 -150.5t135 -58.5q78 0 134.5 55.5t56.5 133.5t-56.5 134t-134.5 56q-76 0 -133 -52.5t-57 -117.5zM180 -418h266v1102h-266v-1102z" />
<glyph unicode="&#xa5;" horiz-adv-x="1028" d="M-2 608l2 191h1028l-2 -191h-1028zM0 938v166h406v-166h-406zM20 1518h285l340 -910h-266zM379 0v748h266v-748h-266zM379 608l344 910h285l-363 -910h-266zM623 940v164h405v-164h-405z" />
<glyph unicode="&#xa8;" horiz-adv-x="1017" d="M225 1405q0 -48 38 -82.5t93 -34.5t94 34.5t39 82.5q0 46 -39 80.5t-94 34.5t-93 -34.5t-38 -80.5zM565 1405q0 -48 38 -82.5t93 -34.5t94 34.5t39 82.5q0 46 -39 80.5t-94 34.5t-93 -34.5t-38 -80.5z" />
<glyph unicode="&#xad;" horiz-adv-x="937" d="M102 475h734v264h-734v-264z" />
<glyph unicode="&#xb4;" horiz-adv-x="1032" d="M322 1243l124 313h285l-164 -313h-245z" />
<glyph unicode="&#xb7;" horiz-adv-x="665" d="M143 702q0 -78 55.5 -134t133.5 -56q79 0 134.5 56t55.5 134t-55.5 133.5t-134.5 55.5q-78 0 -133.5 -55.5t-55.5 -133.5z" />
<glyph unicode="&#xbf;" horiz-adv-x="1228" d="M123 115q0 -131 65 -243t176.5 -177.5t243.5 -65.5q131 0 243 65.5t177.5 177.5t65.5 243q0 132 -65.5 243.5t-177.5 176.5t-243 65v121h-239v-406h239q80 0 139.5 -59.5t59.5 -140.5t-60 -140t-139 -59q-80 0 -139 59t-59 140h-287zM303 967q0 -78 56 -133.5t133 -55.5 q78 0 134 55.5t56 133.5t-56 134t-134 56q-77 0 -133 -56t-56 -134z" />
<glyph unicode="&#xc0;" horiz-adv-x="1142" d="M20 0h267l370 1518h-266zM291 1946h284l125 -314h-245zM328 379h465v246h-465v-246zM485 1518l371 -1518h266l-370 1518h-267z" />
<glyph unicode="&#xc2;" horiz-adv-x="1142" d="M20 0h267l370 1518h-266zM254 1632l125 314h190l-69 -314h-246zM328 379h465v246h-465v-246zM485 1518l371 -1518h266l-370 1518h-267zM537 1946h188l127 -314h-248z" />
<glyph unicode="&#xc8;" horiz-adv-x="1011" d="M133 0v1518h264v-1518h-264zM152 0v266h757v-266h-757zM152 627v264h757v-264h-757zM152 1251v267h757v-267h-757zM223 1946h285l125 -314h-246z" />
<glyph unicode="&#xc9;" horiz-adv-x="1011" d="M133 0v1518h264v-1518h-264zM152 0v266h757v-266h-757zM152 627v264h757v-264h-757zM152 1251v267h757v-267h-757zM326 1632l125 314h284l-164 -314h-245z" />
<glyph unicode="&#xca;" horiz-adv-x="1011" d="M133 0v1518h264v-1518h-264zM152 0v266h757v-266h-757zM152 627v264h757v-264h-757zM152 1251v267h757v-267h-757zM236 1632l124 314h191l-70 -314h-245zM518 1946h189l127 -314h-248z" />
<glyph unicode="&#xcb;" horiz-adv-x="1011" d="M133 0v1518h264v-1518h-264zM152 0v266h757v-266h-757zM152 627v264h757v-264h-757zM152 1251v267h757v-267h-757zM231 1794q0 -48 38 -82.5t93 -34.5t94.5 34.5t39.5 82.5q0 46 -39.5 80.5t-94.5 34.5t-93 -34.5t-38 -80.5zM571 1794q0 -48 38 -82.5t93 -34.5t94.5 34.5 t39.5 82.5q0 46 -39.5 80.5t-94.5 34.5t-93 -34.5t-38 -80.5z" />
<glyph unicode="&#xcf;" horiz-adv-x="548" d="M-41 1794q0 -48 38 -82.5t93 -34.5t94 34.5t39 82.5q0 46 -39 80.5t-94 34.5t-93 -34.5t-38 -80.5zM141 0v1518h267v-1518h-267zM299 1794q0 -48 38 -82.5t93 -34.5t94 34.5t39 82.5q0 46 -39 80.5t-94 34.5t-93 -34.5t-38 -80.5z" />
<glyph unicode="&#xe0;" d="M61 319q0 171 111.5 261t314.5 90h371v-221h-297q-31 0 -46 -0.5t-48 -3t-51.5 -9.5t-40.5 -18.5t-32.5 -32t-10.5 -47.5q0 -49 29 -77t79 -28q67 0 118.5 44.5t51.5 111.5h115q2 -90 -27 -167t-78 -126t-111 -76.5t-126 -27.5q-144 0 -233 87.5t-89 239.5zM80 760 q0 178 109 287.5t288 109.5q180 0 290 -109t110 -288h-267q0 59 -36.5 95t-96.5 36q-59 0 -95 -36.5t-36 -94.5h-266zM254 1556h285l125 -313h-246zM610 0v768h267v-768h-267z" />
<glyph unicode="&#xe1;" d="M61 319q0 171 111.5 261t314.5 90h371v-221h-297q-31 0 -46 -0.5t-48 -3t-51.5 -9.5t-40.5 -18.5t-32.5 -32t-10.5 -47.5q0 -49 29 -77t79 -28q67 0 118.5 44.5t51.5 111.5h115q2 -90 -27 -167t-78 -126t-111 -76.5t-126 -27.5q-144 0 -233 87.5t-89 239.5zM80 760 q0 178 109 287.5t288 109.5q180 0 290 -109t110 -288h-267q0 59 -36.5 95t-96.5 36q-59 0 -95 -36.5t-36 -94.5h-266zM358 1243l125 313h285l-164 -313h-246zM610 0v768h267v-768h-267z" />
<glyph unicode="&#xe2;" d="M61 319q0 171 111.5 261t314.5 90h371v-221h-297q-31 0 -46 -0.5t-48 -3t-51.5 -9.5t-40.5 -18.5t-32.5 -32t-10.5 -47.5q0 -49 29 -77t79 -28q67 0 118.5 44.5t51.5 111.5h115q2 -90 -27 -167t-78 -126t-111 -76.5t-126 -27.5q-144 0 -233 87.5t-89 239.5zM80 760 q0 178 109 287.5t288 109.5q180 0 290 -109t110 -288h-267q0 59 -36.5 95t-96.5 36q-59 0 -95 -36.5t-36 -94.5h-266zM178 1243l125 313h191l-70 -313h-246zM461 1556h188l127 -313h-248zM610 0v768h267v-768h-267z" />
<glyph unicode="&#xe8;" horiz-adv-x="1001" d="M102 389h267q0 -67 37.5 -104t95.5 -37q60 0 100.5 37.5t40.5 103.5h256q0 -163 -122.5 -280t-287.5 -117q-118 0 -207 54t-134.5 143.5t-45.5 199.5zM102 389v371h267v-371h-267zM102 760q0 164 117 280.5t283 116.5q164 0 280.5 -116.5t116.5 -280.5h-256 q0 66 -41.5 105.5t-99.5 39.5q-56 0 -94.5 -39t-38.5 -106h-267zM141 496v221h758v-221h-758zM279 1556h284l125 -313h-246zM643 696v64h256v-64h-256z" />
<glyph unicode="&#xe9;" horiz-adv-x="1001" d="M102 389h267q0 -67 37.5 -104t95.5 -37q60 0 100.5 37.5t40.5 103.5h256q0 -163 -122.5 -280t-287.5 -117q-118 0 -207 54t-134.5 143.5t-45.5 199.5zM102 389v371h267v-371h-267zM102 760q0 164 117 280.5t283 116.5q164 0 280.5 -116.5t116.5 -280.5h-256 q0 66 -41.5 105.5t-99.5 39.5q-56 0 -94.5 -39t-38.5 -106h-267zM141 496v221h758v-221h-758zM383 1243l125 313h285l-164 -313h-246zM643 696v64h256v-64h-256z" />
<glyph unicode="&#xea;" horiz-adv-x="1001" d="M102 389h267q0 -67 37.5 -104t95.5 -37q60 0 100.5 37.5t40.5 103.5h256q0 -163 -122.5 -280t-287.5 -117q-118 0 -207 54t-134.5 143.5t-45.5 199.5zM102 389v371h267v-371h-267zM102 760q0 164 117 280.5t283 116.5q164 0 280.5 -116.5t116.5 -280.5h-256 q0 66 -41.5 105.5t-99.5 39.5q-56 0 -94.5 -39t-38.5 -106h-267zM141 496v221h758v-221h-758zM203 1243l125 313h190l-69 -313h-246zM485 1556h189l127 -313h-248zM643 696v64h256v-64h-256z" />
<glyph unicode="&#xeb;" horiz-adv-x="1001" d="M102 389h267q0 -67 37.5 -104t95.5 -37q60 0 100.5 37.5t40.5 103.5h256q0 -163 -122.5 -280t-287.5 -117q-118 0 -207 54t-134.5 143.5t-45.5 199.5zM102 389v371h267v-371h-267zM102 760q0 164 117 280.5t283 116.5q164 0 280.5 -116.5t116.5 -280.5h-256 q0 66 -41.5 105.5t-99.5 39.5q-56 0 -94.5 -39t-38.5 -106h-267zM141 496v221h758v-221h-758zM199 1405q0 -48 38 -82.5t93 -34.5t94 34.5t39 82.5q0 46 -39 80.5t-94 34.5t-93 -34.5t-38 -80.5zM539 1405q0 -48 38 -82.5t93 -34.5t94 34.5t39 82.5q0 46 -39 80.5t-94 34.5 t-93 -34.5t-38 -80.5zM643 696v64h256v-64h-256z" />
<glyph unicode="&#x2c6;" horiz-adv-x="1017" d="M231 1243l125 313h191l-70 -313h-246zM514 1556h188l127 -313h-247z" />
<glyph unicode="&#x2000;" horiz-adv-x="973" />
<glyph unicode="&#x2001;" horiz-adv-x="1946" />
<glyph unicode="&#x2002;" horiz-adv-x="973" />
<glyph unicode="&#x2003;" horiz-adv-x="1946" />
<glyph unicode="&#x2004;" horiz-adv-x="648" />
<glyph unicode="&#x2005;" horiz-adv-x="486" />
<glyph unicode="&#x2006;" horiz-adv-x="324" />
<glyph unicode="&#x2007;" horiz-adv-x="324" />
<glyph unicode="&#x2008;" horiz-adv-x="243" />
<glyph unicode="&#x2009;" horiz-adv-x="389" />
<glyph unicode="&#x200a;" horiz-adv-x="108" />
<glyph unicode="&#x2010;" horiz-adv-x="937" d="M102 475h734v264h-734v-264z" />
<glyph unicode="&#x2011;" horiz-adv-x="937" d="M102 475h734v264h-734v-264z" />
<glyph unicode="&#x2012;" horiz-adv-x="937" d="M102 475h734v264h-734v-264z" />
<glyph unicode="&#x2013;" horiz-adv-x="1228" d="M102 475h1024v264h-1024v-264z" />
<glyph unicode="&#x2014;" horiz-adv-x="1794" d="M102 475h1590v264h-1590v-264z" />
<glyph unicode="&#x2018;" horiz-adv-x="595" d="M82 989h301l152 529h-263z" />
<glyph unicode="&#x2019;" horiz-adv-x="595" d="M61 989h263l190 529h-301z" />
<glyph unicode="&#x201c;" horiz-adv-x="931" d="M82 989h299l151 529h-223zM457 989h301l112 529h-223z" />
<glyph unicode="&#x201d;" horiz-adv-x="931" d="M61 989h224l190 529h-301zM399 989h224l227 529h-299z" />
<glyph unicode="&#x2022;" d="M184 610q0 -126 89 -215.5t216 -89.5q125 0 215.5 89.5t90.5 215.5q0 124 -90.5 211.5t-215.5 87.5q-127 0 -216 -87t-89 -212z" />
<glyph unicode="&#x2026;" horiz-adv-x="1536" d="M82 190q0 -78 55.5 -134t134.5 -56q78 0 134.5 56t56.5 134t-56.5 133.5t-134.5 55.5q-79 0 -134.5 -55.5t-55.5 -133.5zM82 190q0 -78 55.5 -134t134.5 -56q78 0 134.5 56t56.5 134t-56.5 133.5t-134.5 55.5q-79 0 -134.5 -55.5t-55.5 -133.5zM82 190q0 -78 55.5 -134 t134.5 -56q78 0 134.5 56t56.5 134t-56.5 133.5t-134.5 55.5q-79 0 -134.5 -55.5t-55.5 -133.5zM578 190q0 -78 55.5 -134t134.5 -56q78 0 134 56t56 134t-56 133.5t-134 55.5q-79 0 -134.5 -55.5t-55.5 -133.5zM1073 190q0 -78 56 -134t135 -56q78 0 134 56t56 134 t-56 133.5t-134 55.5q-79 0 -135 -55.5t-56 -133.5z" />
<glyph unicode="&#x202f;" horiz-adv-x="389" />
<glyph unicode="&#x205f;" horiz-adv-x="486" />
<glyph unicode="&#x25fc;" horiz-adv-x="1146" d="M0 0v1147h1147v-1147h-1147z" />
</font>
</defs>
</svg>
